<svg width="33.456421" height="38.000000" viewBox="0 0 33.4564 38" fill="none" xmlns="http://www.w3.org/2000/svg" xmlns:xlink="http://www.w3.org/1999/xlink">
	<desc>
			Created with Pixso.
	</desc>
	<defs>
		<clipPath id="clip94_2">
			<rect id="address-book-solid 1" width="33.456440" height="38.000000" fill="white" fill-opacity="0"/>
		</clipPath>
	</defs>
	<rect id="address-book-solid 1" width="33.456440" height="38.000000" fill="#FFFFFF" fill-opacity="0"/>
	<g clip-path="url(#clip94_2)">
		<path id="Vector" d="M32.5603 11.875C33.0532 11.875 33.4564 11.4741 33.4564 10.9844L33.4564 8.01562C33.4564 7.52588 33.0532 7.125 32.5603 7.125L31.0667 7.125L31.0667 3.5625C31.0667 1.5957 29.4611 0 27.4821 0L3.58459 0C1.60559 0 0 1.5957 0 3.5625L0 34.4375C0 36.4043 1.60559 38 3.58459 38L27.4821 38C29.4611 38 31.0667 36.4043 31.0667 34.4375L31.0667 30.875L32.5603 30.875C33.0532 30.875 33.4564 30.4741 33.4564 29.9844L33.4564 27.0156C33.4564 26.5259 33.0532 26.125 32.5603 26.125L31.0667 26.125L31.0667 21.375L32.5603 21.375C33.0532 21.375 33.4564 20.9741 33.4564 20.4844L33.4564 17.5156C33.4564 17.0259 33.0532 16.625 32.5603 16.625L31.0667 16.625L31.0667 11.875L32.5603 11.875ZM15.5333 9.5C18.1696 9.5 20.3129 11.6301 20.3129 14.25C20.3129 16.8699 18.1696 19 15.5333 19C12.8972 19 10.7539 16.8699 10.7539 14.25C10.7539 11.6301 12.8972 9.5 15.5333 9.5ZM23.8975 27.075C23.8975 27.8618 23.1506 28.5 22.2246 28.5L8.84204 28.5C7.91602 28.5 7.16919 27.8618 7.16919 27.075L7.16919 25.6499C7.16919 23.2898 9.41711 21.375 12.1877 21.375L12.5612 21.375C13.4796 21.7534 14.4803 21.9688 15.5333 21.9688C16.5863 21.9688 17.5945 21.7534 18.5056 21.375L18.879 21.375C21.6497 21.375 23.8975 23.2898 23.8975 25.6499L23.8975 27.075Z" fill="#1F3F68" fill-opacity="1.000000" fill-rule="nonzero"/>
	</g>
</svg>
