<svg width="300.313965" height="181.000000" viewBox="0 0 300.314 181" fill="none" xmlns="http://www.w3.org/2000/svg" xmlns:xlink="http://www.w3.org/1999/xlink">
	<desc>
			Created with Pixso.
	</desc>
	<defs>
		<clipPath id="clip102_19">
			<rect id="ic_phone_24px" width="19.479820" height="19.479820" transform="translate(42.206055 61.686035)" fill="white" fill-opacity="0"/>
		</clipPath>
		<clipPath id="clip102_23">
			<rect id="ic_email_24px" width="19.479820" height="19.479820" transform="translate(60.874023 4.058350)" fill="white" fill-opacity="0"/>
		</clipPath>
		<clipPath id="clip102_27">
			<rect id="ic_language_24px" width="19.479820" height="19.479820" transform="translate(132.300781 4.058350)" fill="white" fill-opacity="0"/>
		</clipPath>
		<linearGradient id="paint_linear_102_2_0" x1="255.537949" y1="142.738281" x2="255.537949" y2="158.624313" gradientUnits="userSpaceOnUse">
			<stop stop-color="#6CEDA0"/>
			<stop offset="1.000000" stop-color="#199D56"/>
		</linearGradient>
		<linearGradient id="paint_linear_102_3_0" x1="273.900970" y1="148.613419" x2="258.665405" y2="153.112671" gradientUnits="userSpaceOnUse">
			<stop stop-color="#6CEDA0"/>
			<stop offset="1.000000" stop-color="#199D56"/>
		</linearGradient>
		<linearGradient id="paint_linear_102_4_0" x1="265.733368" y1="142.692581" x2="256.193237" y2="155.395004" gradientUnits="userSpaceOnUse">
			<stop stop-color="#6CEDA0"/>
			<stop offset="1.000000" stop-color="#199D56"/>
		</linearGradient>
		<linearGradient id="paint_linear_102_7_0" x1="132.020660" y1="61.036579" x2="122.568062" y2="68.500496" gradientUnits="userSpaceOnUse">
			<stop stop-color="#FFF8E1"/>
			<stop offset="1.000000" stop-color="#FFCC80"/>
		</linearGradient>
		<linearGradient id="paint_linear_102_8_0" x1="114.350471" y1="73.845558" x2="100.859459" y2="81.165817" gradientUnits="userSpaceOnUse">
			<stop stop-color="#FFF8E1"/>
			<stop offset="1.000000" stop-color="#FFCC80"/>
		</linearGradient>
		<linearGradient id="paint_linear_102_9_0" x1="138.996185" y1="67.449181" x2="135.379211" y2="86.160873" gradientUnits="userSpaceOnUse">
			<stop stop-color="#98D0FC"/>
			<stop offset="1.000000" stop-color="#3481D7"/>
		</linearGradient>
		<linearGradient id="paint_linear_102_10_0" x1="164.000000" y1="71.500000" x2="170.000000" y2="84.000000" gradientUnits="userSpaceOnUse">
			<stop stop-color="#FFF8E1"/>
			<stop offset="1.000000" stop-color="#FFCC80"/>
		</linearGradient>
		<linearGradient id="paint_linear_102_11_0" x1="42.500008" y1="138.000000" x2="78.000015" y2="152.000000" gradientUnits="userSpaceOnUse">
			<stop offset="0.064260" stop-color="#EB5757"/>
			<stop offset="1.000000" stop-color="#872727"/>
		</linearGradient>
		<linearGradient id="paint_linear_102_13_0" x1="120.999985" y1="79.999992" x2="142.000000" y2="114.499992" gradientUnits="userSpaceOnUse">
			<stop stop-color="#98D0FC"/>
			<stop offset="1.000000" stop-color="#3481D7"/>
		</linearGradient>
		<linearGradient id="paint_linear_102_15_0" x1="70.000000" y1="107.999924" x2="100.999992" y2="142.499939" gradientUnits="userSpaceOnUse">
			<stop stop-color="#EB5757"/>
			<stop offset="1.000000" stop-color="#872727"/>
		</linearGradient>
		<linearGradient id="paint_linear_102_16_0" x1="240.000000" y1="116.999855" x2="167.000000" y2="97.999863" gradientUnits="userSpaceOnUse">
			<stop stop-color="#FCF898"/>
			<stop offset="1.000000" stop-color="#D7BD34"/>
		</linearGradient>
		<linearGradient id="paint_linear_102_17_0" x1="189.007797" y1="51.270996" x2="189.007797" y2="112.674187" gradientUnits="userSpaceOnUse">
			<stop stop-color="#AF6CED"/>
			<stop offset="1.000000" stop-color="#5E199D"/>
		</linearGradient>
	</defs>
	<g opacity="0.200000">
		<ellipse id="Ellipse" cx="150.156982" cy="171.260010" rx="150.156952" ry="9.739910" fill="#98C3E8" fill-opacity="1.000000"/>
	</g>
	<path id="Vector 3" d="M255.073 155.874C252.267 151.198 247.405 142.033 250.397 142.781C254.138 143.717 261.619 154.471 261.619 156.809C261.619 159.147 257.202 159.615 255.073 155.874Z" fill="url(#paint_linear_102_2_0)" fill-opacity="1.000000" fill-rule="evenodd"/>
	<path id="Vector 3.1" d="M261.172 151.888C264.861 147.873 272.273 140.613 272.404 143.695C272.566 147.548 264.371 157.768 262.129 158.43C259.886 159.093 258.187 154.99 261.172 151.888Z" fill="url(#paint_linear_102_3_0)" fill-opacity="1.000000" fill-rule="evenodd"/>
	<path id="Vector 3.2" d="M257.473 152.917C258.038 147.493 259.653 137.244 261.597 139.64C264.026 142.634 263.55 155.726 262.146 157.595C260.742 159.465 256.929 157.186 257.473 152.917Z" fill="url(#paint_linear_102_4_0)" fill-opacity="1.000000" fill-rule="evenodd"/>
	<path id="Vector 3" d="M51.6724 168.799L53.0752 163.655L48.8667 163.655L42.3206 172.072L51.6724 168.799ZM23.6172 172.072L27.3579 168.799L24.0847 166.461L13.7979 172.072L23.6172 172.072Z" fill="#6FCF97" fill-opacity="1.000000" fill-rule="evenodd"/>
	<path id="Vector 3" d="M108.718 72.4758L111.524 65.9297L105.445 62.6565L102.172 70.6055L102.639 75.749L107.315 74.3462L108.718 72.4758Z" fill="#F2994A" fill-opacity="1.000000" fill-rule="evenodd"/>
	<path id="Vector 3" d="M126.954 70.6055L125.551 68.7351C125.551 68.7351 124.185 68.0935 123.681 67.3323C123.067 66.4065 122.905 65.594 123.213 64.5269C123.467 63.6497 124.616 62.6565 124.616 62.6565L121.811 58.9158C121.966 57.9807 121.811 57.0454 123.213 58.4482C124.756 59.9905 127.422 63.124 128.824 65.4622L130.695 68.7351L126.954 70.6055Z" fill="url(#paint_linear_102_7_0)" fill-opacity="1.000000" fill-rule="evenodd"/>
	<path id="Vector 3" d="M108.25 83.2302L105.912 79.9573C105.912 79.9573 101.911 79.134 100.768 77.1516C99.6741 75.2532 99.2402 73.1111 100.768 71.5405C101.228 71.0688 102.171 70.6055 102.171 70.6055C102.794 71.5405 103.48 73.0095 104.977 73.4109C106.431 73.8013 107.782 72.7876 108.717 72.4758C108.717 73.2551 108.717 74.9072 108.717 75.2812C108.717 75.6555 111.211 78.5544 112.458 79.9573L108.25 83.2302Z" fill="url(#paint_linear_102_8_0)" fill-opacity="1.000000" fill-rule="evenodd"/>
	<path id="Vector 4" d="M148 85.5L130.695 68.7354L126.954 70.6057L138.644 87.9065L148 85.5Z" fill="url(#paint_linear_102_9_0)" fill-opacity="1.000000" fill-rule="evenodd"/>
	<path id="Vector 3" d="M166.232 66.3972C163.271 68.4233 157.722 73.3174 159.218 76.6841C160.714 80.0508 162.647 82.4509 163.426 83.2302L160.621 89.3088L168.102 99.5959L172.778 89.3088L178.856 81.3599L166.232 66.3972Z" fill="url(#paint_linear_102_10_0)" fill-opacity="1.000000" fill-rule="evenodd"/>
	<path id="Vector 2" d="M24.085 166.461L27.3582 168.331L67.5706 144.484L116.199 135.6L108.25 120.17L71.3113 120.17L24.085 166.461Z" fill="url(#paint_linear_102_11_0)" fill-opacity="1.000000" fill-rule="evenodd"/>
	<g opacity="0.200000">
		<path id="Vector 3" d="M67.5 144.5L114.5 135.5L73.5 121L59.5 149L67.5 144.5Z" fill="#000000" fill-opacity="1.000000" fill-rule="evenodd"/>
	</g>
	<path id="Vector 3" d="M117.134 114.559C119.316 114.091 124.896 112.688 127.889 110.818C131.629 108.48 140.046 99.5959 140.981 97.7256C141.916 95.8552 127.889 99.5959 122.745 97.7256C118.63 96.2292 111.367 87.4387 108.25 83.2305L112.458 79.9573C116.043 83.2305 123.867 89.7766 126.486 89.7766C129.759 89.7766 147.995 83.698 151.736 84.1655C154.728 84.5396 159.996 85.7241 162.022 86.0359L166.698 92.1145L155.009 119.702L126.486 127.651L117.134 114.559Z" fill="url(#paint_linear_102_13_0)" fill-opacity="1.000000" fill-rule="evenodd"/>
	<g opacity="0.200000">
		<path id="Vector 3" d="M127.5 111C133.167 108.833 144.9 103.5 146.5 99.5C148.1 95.5 143.667 97 141 98C138 101.5 133.5 107 127.5 111Z" fill="#000000" fill-opacity="1.000000" fill-rule="evenodd"/>
	</g>
	<path id="Vector 2" d="M48.8672 163.655L53.0754 163.655L75.052 128.119L104 134.5L125.084 124.845L117.135 114.559C102.484 113.312 72.0596 110.818 67.5706 110.818C63.0818 110.818 53.2314 146.043 48.8672 163.655Z" fill="url(#paint_linear_102_15_0)" fill-opacity="1.000000" fill-rule="evenodd"/>
	<path id="Vector" d="M81.5986 160.85C83.9368 165.058 87.2097 170.669 114.33 169.266C141.45 167.863 217.199 164.123 222.81 164.123C228.421 164.123 244.319 147.29 239.175 117.832C234.032 88.3738 220.472 60.3186 198.495 64.0591C176.519 67.7998 155.01 105.674 140.982 113.623C126.955 121.572 109.654 129.989 95.6262 138.406C81.5986 146.822 78.7932 152.433 81.5986 160.85Z" fill="url(#paint_linear_102_16_0)" fill-opacity="1.000000" fill-rule="evenodd"/>
	<path id="Vector 2" d="M166.231 66.8647C164.985 69.6702 163.239 75.5618 166.231 76.6841C169.972 78.0867 176.051 78.0867 176.518 81.8274C176.986 85.5681 166.699 93.5171 170.907 98.6606C175.115 103.804 168.102 103.336 172.31 110.818C176.518 118.299 182.129 100.999 192.416 97.2578C202.703 93.5171 201.768 96.7903 208.781 92.582C215.795 88.3738 214.393 78.5544 207.846 74.8137C201.3 71.073 201.3 68.2676 201.3 63.124C201.3 57.9805 191.948 50.0315 184.935 51.4343C177.921 52.8372 167.771 61.7212 166.231 66.8647Z" fill="url(#paint_linear_102_17_0)" fill-opacity="1.000000" fill-rule="evenodd"/>
	<rect id="Rectangle" x="33.278320" y="57.627930" width="36.471729" height="27.120005" fill="#5A98D0" fill-opacity="1.000000"/>
	<rect id="ic_phone_24px" width="19.479820" height="19.479820" transform="translate(42.206055 61.686035)" fill="#FFFFFF" fill-opacity="0"/>
	<g clip-path="url(#clip102_19)">
		<path id="Vector" d="M47.5793 70.4438C48.748 72.741 50.6311 74.616 52.9282 75.7927L54.7139 74.0071C54.9329 73.7878 55.2576 73.7148 55.5417 73.8123C56.4507 74.1125 57.4329 74.2749 58.4392 74.2749C58.8857 74.2749 59.251 74.6401 59.251 75.0867L59.251 77.9192C59.251 78.3657 58.8857 78.731 58.4392 78.731C50.8179 78.731 44.6411 72.5542 44.6411 64.9329C44.6411 64.4863 45.0063 64.1211 45.4529 64.1211L48.2937 64.1211C48.74 64.1211 49.1052 64.4863 49.1052 64.9329C49.1052 65.9473 49.2676 66.9214 49.5679 67.8303C49.6572 68.1145 49.5923 68.4309 49.365 68.6582L47.5793 70.4438Z" fill="#FFFFFF" fill-opacity="1.000000" fill-rule="nonzero"/>
	</g>
	<rect id="Rectangle" x="51.946289" width="36.471729" height="27.120005" fill="#5A98D0" fill-opacity="1.000000"/>
	<rect id="ic_email_24px" width="19.479820" height="19.479820" transform="translate(60.874023 4.058350)" fill="#FFFFFF" fill-opacity="0"/>
	<g clip-path="url(#clip102_23)">
		<path id="Vector" d="M77.1072 7.30493L64.1206 7.30493C63.2278 7.30493 62.5054 8.0354 62.5054 8.92822L62.4973 18.6682C62.4973 19.561 63.2278 20.2915 64.1206 20.2915L77.1072 20.2915C78 20.2915 78.7305 19.561 78.7305 18.6682L78.7305 8.92822C78.7305 8.0354 78 7.30493 77.1072 7.30493ZM77.1072 10.5515L70.614 14.6099L64.1206 10.5515L64.1206 8.92822L70.614 12.9866L77.1072 8.92822L77.1072 10.5515Z" fill="#FFFFFF" fill-opacity="1.000000" fill-rule="nonzero"/>
	</g>
	<rect id="Rectangle" x="124.183594" width="36.471729" height="27.120005" fill="#5A98D0" fill-opacity="1.000000"/>
	<rect id="ic_language_24px" width="19.479820" height="19.479820" transform="translate(132.300781 4.058350)" fill="#FFFFFF" fill-opacity="0"/>
	<g clip-path="url(#clip102_27)">
		<path id="Vector" d="M142.032 5.68164C137.552 5.68164 133.924 9.31787 133.924 13.7983C133.924 18.2786 137.552 21.9148 142.032 21.9148C146.521 21.9148 150.157 18.2786 150.157 13.7983C150.157 9.31787 146.521 5.68164 142.032 5.68164ZM147.657 10.5515L145.263 10.5515C145.003 9.53711 144.63 8.56299 144.143 7.66211C145.636 8.17334 146.878 9.2124 147.657 10.5515ZM142.041 7.3374C142.714 8.31152 143.242 9.39087 143.591 10.5515L140.49 10.5515C140.839 9.39087 141.367 8.31152 142.041 7.3374ZM135.758 15.4216C135.629 14.9021 135.547 14.3584 135.547 13.7983C135.547 13.2383 135.629 12.6943 135.758 12.1748L138.502 12.1748C138.437 12.7107 138.388 13.2463 138.388 13.7983C138.388 14.3501 138.437 14.8857 138.502 15.4216L135.758 15.4216ZM136.424 17.0449L138.818 17.0449C139.078 18.0593 139.451 19.0334 139.938 19.9343C138.445 19.4231 137.203 18.3923 136.424 17.0449ZM138.818 10.5515L136.424 10.5515C137.203 9.20435 138.445 8.17334 139.938 7.66211C139.451 8.56299 139.078 9.53711 138.818 10.5515ZM142.041 20.259C141.367 19.2852 140.839 18.2056 140.49 17.0449L143.591 17.0449C143.242 18.2056 142.714 19.2852 142.041 20.259ZM143.94 15.4216L140.141 15.4216C140.068 14.8857 140.011 14.3501 140.011 13.7983C140.011 13.2463 140.068 12.7024 140.141 12.1748L143.94 12.1748C144.013 12.7024 144.07 13.2463 144.07 13.7983C144.07 14.3501 144.013 14.8857 143.94 15.4216ZM144.143 19.9343C144.63 19.0334 145.003 18.0593 145.263 17.0449L147.657 17.0449C146.878 18.384 145.636 19.4231 144.143 19.9343ZM145.58 15.4216C145.645 14.8857 145.693 14.3501 145.693 13.7983C145.693 13.2463 145.645 12.7107 145.58 12.1748L148.323 12.1748C148.453 12.6943 148.534 13.2383 148.534 13.7983C148.534 14.3584 148.453 14.9021 148.323 15.4216L145.58 15.4216Z" fill="#FFFFFF" fill-opacity="1.000000" fill-rule="nonzero"/>
	</g>
	<path id="Rectangle 2" d="M249.461 152.133C250.863 149.795 270.308 150.263 270.969 152.133C271.631 154.003 270.034 164.291 266.761 165.226C263.489 166.161 256.942 166.628 254.136 165.226C251.33 163.823 248.058 154.471 249.461 152.133Z" fill="#F2994A" fill-opacity="1.000000" fill-rule="nonzero"/>
</svg>
