<svg width="1366.000000" height="250.000000" viewBox="0 0 1366 250" fill="none" xmlns="http://www.w3.org/2000/svg" xmlns:xlink="http://www.w3.org/1999/xlink">
	<desc>
			Created with Pixso.
	</desc>
	<defs>
		<linearGradient id="paint_linear_1_815_0" x1="1366.000000" y1="-60.000122" x2="55.500244" y2="285.000183" gradientUnits="userSpaceOnUse">
			<stop stop-color="#98D0FC"/>
			<stop offset="1.000000" stop-color="#3481D7"/>
		</linearGradient>
	</defs>
	<mask id="mask1_814" mask-type="alpha" maskUnits="userSpaceOnUse" x="0.000000" y="0.000000" width="1366.000000" height="250.000000">
		<rect id="Rectangle 6" width="1366.000000" height="250.000000" fill="#C4C4C4" fill-opacity="1.000000"/>
	</mask>
	<g mask="url(#mask1_814)">
		<rect id="Rectangle" y="-111.000000" width="1366.000000" height="471.000000" fill="url(#paint_linear_1_815_0)" fill-opacity="1.000000"/>
	</g>
	<g mask="url(#mask1_814)">
		<path id="Vector" d="M-72 97C-3 77.5 148.7 46.3 203.5 77.5C258.3 108.7 320.333 231.167 344.5 288.5L827 275C751.833 232.667 600.1 133.9 594.5 77.5C588.9 21.1001 684.5 -60 733 -93.5L967 -69.5C970.167 -45.1667 986.1 10.8999 1024.5 40.5C1062.9 70.1001 1306.5 -9.16675 1423.5 -52.5L1438 344C1393.5 279.333 1290.1 148.6 1232.5 143C1174.9 137.4 1002.83 215.667 924 255.5" stroke="#FFFFFF" stroke-opacity="0.150000" stroke-width="15.000000"/>
	</g>
	<g mask="url(#mask1_814)">
		<circle id="Ellipse" cx="88.000000" cy="23.000000" r="9.000000" fill="#FFFFFF" fill-opacity="0.200000"/>
	</g>
	<g mask="url(#mask1_814)">
		<circle id="Ellipse" cx="480.000000" cy="115.000000" r="9.000000" fill="#FFFFFF" fill-opacity="0.200000"/>
	</g>
	<g mask="url(#mask1_814)">
		<circle id="Ellipse" cx="602.000000" cy="250.000000" r="9.000000" fill="#FFFFFF" fill-opacity="0.200000"/>
	</g>
	<g mask="url(#mask1_814)">
		<circle id="Ellipse" cx="845.000000" cy="35.000000" r="9.000000" fill="#FFFFFF" fill-opacity="0.200000"/>
	</g>
	<g mask="url(#mask1_814)">
		<circle id="Ellipse" cx="1193.000000" cy="200.000000" r="9.000000" fill="#FFFFFF" fill-opacity="0.200000"/>
	</g>
	<g mask="url(#mask1_814)">
		<circle id="Ellipse" cx="1366.000000" cy="116.000000" r="9.000000" fill="#FFFFFF" fill-opacity="0.200000"/>
	</g>
	<g mask="url(#mask1_814)">
		<circle id="Ellipse" cx="240.000000" cy="250.000000" r="17.000000" stroke="#FFFFFF" stroke-opacity="0.600000" stroke-width="8.000000"/>
	</g>
	<g mask="url(#mask1_814)">
		<circle id="Ellipse" cx="11.000000" cy="170.000000" r="17.000000" stroke="#FFFFFF" stroke-opacity="0.600000" stroke-width="8.000000"/>
	</g>
	<g mask="url(#mask1_814)">
		<circle id="Ellipse" cx="382.000000" cy="0.000000" r="17.000000" stroke="#FFFFFF" stroke-opacity="0.600000" stroke-width="8.000000"/>
	</g>
	<g mask="url(#mask1_814)">
		<circle id="Ellipse" cx="877.000000" cy="221.000000" r="17.000000" stroke="#FFFFFF" stroke-opacity="0.600000" stroke-width="8.000000"/>
	</g>
	<g mask="url(#mask1_814)">
		<circle id="Ellipse" cx="1267.000000" cy="71.000000" r="17.000000" stroke="#FFFFFF" stroke-opacity="0.600000" stroke-width="8.000000"/>
	</g>
</svg>
