<svg width="24.000000" height="24.000000" viewBox="0 0 24 24" fill="none" xmlns="http://www.w3.org/2000/svg" xmlns:xlink="http://www.w3.org/1999/xlink">
	<desc>
			Created with Pixso.
	</desc>
	<defs>
		<clipPath id="clip1_865">
			<rect id="ic_language_24px" width="24.000000" height="24.000000" fill="white" fill-opacity="0"/>
		</clipPath>
	</defs>
	<rect id="ic_language_24px" width="24.000000" height="24.000000" fill="#FFFFFF" fill-opacity="0"/>
	<g clip-path="url(#clip1_865)">
		<path id="Vector" d="M11.99 2C6.46997 2 2 6.47998 2 12C2 17.52 6.46997 22 11.99 22C17.52 22 22 17.52 22 12C22 6.47998 17.52 2 11.99 2ZM18.9199 8L15.97 8C15.6499 6.75 15.1899 5.55005 14.5901 4.43994C16.4299 5.06995 17.96 6.34998 18.9199 8ZM12 4.04004C12.8301 5.23999 13.48 6.56995 13.9099 8L10.0901 8C10.52 6.56995 11.1699 5.23999 12 4.04004ZM4.26001 14C4.1001 13.36 4 12.6899 4 12C4 11.3101 4.1001 10.64 4.26001 10L7.63989 10C7.56006 10.66 7.5 11.3199 7.5 12C7.5 12.6801 7.56006 13.34 7.63989 14L4.26001 14ZM5.08008 16L8.03003 16C8.3501 17.25 8.81006 18.45 9.40991 19.5601C7.57007 18.9301 6.04004 17.66 5.08008 16ZM8.03003 8L5.08008 8C6.04004 6.33997 7.57007 5.06995 9.40991 4.43994C8.81006 5.55005 8.3501 6.75 8.03003 8ZM12 19.96C11.1699 18.76 10.52 17.4301 10.0901 16L13.9099 16C13.48 17.4301 12.8301 18.76 12 19.96ZM14.3401 14L9.65991 14C9.57007 13.34 9.5 12.6801 9.5 12C9.5 11.3199 9.57007 10.65 9.65991 10L14.3401 10C14.4299 10.65 14.5 11.3199 14.5 12C14.5 12.6801 14.4299 13.34 14.3401 14ZM14.5901 19.5601C15.1899 18.45 15.6499 17.25 15.97 16L18.9199 16C17.96 17.65 16.4299 18.9301 14.5901 19.5601ZM16.3601 14C16.4399 13.34 16.5 12.6801 16.5 12C16.5 11.3199 16.4399 10.66 16.3601 10L19.74 10C19.8999 10.64 20 11.3101 20 12C20 12.6899 19.8999 13.36 19.74 14L16.3601 14Z" fill="#1F3F68" fill-opacity="1.000000" fill-rule="nonzero"/>
	</g>
</svg>
