<svg width="553.685059" height="491.387451" viewBox="0 0 553.685 491.387" fill="none" xmlns="http://www.w3.org/2000/svg" xmlns:xlink="http://www.w3.org/1999/xlink">
	<desc>
			Created with Pixso.
	</desc>
	<defs>
		<filter id="filter_1_998_dd" x="314.659424" y="47.167480" width="170.897949" height="170.897949" filterUnits="userSpaceOnUse" color-interpolation-filters="sRGB">
			<feFlood flood-opacity="0" result="BackgroundImageFix"/>
			<feColorMatrix in="SourceAlpha" type="matrix" values="0 0 0 0 0 0 0 0 0 0 0 0 0 0 0 0 0 0 127 0" result="hardAlpha"/>
			<feOffset dx="0" dy="0"/>
			<feGaussianBlur stdDeviation="16.6667"/>
			<feComposite in2="hardAlpha" operator="out" k2="-1" k3="1"/>
			<feColorMatrix type="matrix" values="0 0 0 0 0.062745 0 0 0 0 0.43922 0 0 0 0 0.69412 0 0 0 0.25 0"/>
			<feBlend mode="normal" in2="BackgroundImageFix" result="effect_dropShadow_1"/>
			<feBlend mode="normal" in="SourceGraphic" in2="effect_dropShadow_1" result="shape"/>
		</filter>
		<clipPath id="clip1_999">
			<rect id="ic_home_48px" width="38.671623" height="38.671623" transform="translate(380.772461 113.280273)" fill="white" fill-opacity="0"/>
		</clipPath>
		<filter id="filter_1_1004_dd" x="316.904785" y="0.000000" width="63.143311" height="58.413330" filterUnits="userSpaceOnUse" color-interpolation-filters="sRGB">
			<feFlood flood-opacity="0" result="BackgroundImageFix"/>
			<feColorMatrix in="SourceAlpha" type="matrix" values="0 0 0 0 0 0 0 0 0 0 0 0 0 0 0 0 0 0 127 0" result="hardAlpha"/>
			<feOffset dx="5" dy="5"/>
			<feGaussianBlur stdDeviation="5"/>
			<feComposite in2="hardAlpha" operator="out" k2="-1" k3="1"/>
			<feColorMatrix type="matrix" values="0 0 0 0 0 0 0 0 0 0 0 0 0 0 0 0 0 0 0.15 0"/>
			<feBlend mode="normal" in2="BackgroundImageFix" result="effect_dropShadow_1"/>
			<feBlend mode="normal" in="SourceGraphic" in2="effect_dropShadow_1" result="shape"/>
		</filter>
		<clipPath id="clip1_1005">
			<rect id="ic_ac_unit_24px" width="19.335812" height="16.690775" transform="translate(334.044434 15.563721)" fill="white" fill-opacity="0"/>
		</clipPath>
		<filter id="filter_1_1009_dd" x="456.978027" y="71.631104" width="63.143311" height="58.413330" filterUnits="userSpaceOnUse" color-interpolation-filters="sRGB">
			<feFlood flood-opacity="0" result="BackgroundImageFix"/>
			<feColorMatrix in="SourceAlpha" type="matrix" values="0 0 0 0 0 0 0 0 0 0 0 0 0 0 0 0 0 0 127 0" result="hardAlpha"/>
			<feOffset dx="5" dy="5"/>
			<feGaussianBlur stdDeviation="5"/>
			<feComposite in2="hardAlpha" operator="out" k2="-1" k3="1"/>
			<feColorMatrix type="matrix" values="0 0 0 0 0 0 0 0 0 0 0 0 0 0 0 0 0 0 0.15 0"/>
			<feBlend mode="normal" in2="BackgroundImageFix" result="effect_dropShadow_1"/>
			<feBlend mode="normal" in="SourceGraphic" in2="effect_dropShadow_1" result="shape"/>
		</filter>
		<filter id="filter_1_1012_dd" x="279.733154" y="71.631104" width="63.143311" height="58.413330" filterUnits="userSpaceOnUse" color-interpolation-filters="sRGB">
			<feFlood flood-opacity="0" result="BackgroundImageFix"/>
			<feColorMatrix in="SourceAlpha" type="matrix" values="0 0 0 0 0 0 0 0 0 0 0 0 0 0 0 0 0 0 127 0" result="hardAlpha"/>
			<feOffset dx="5" dy="5"/>
			<feGaussianBlur stdDeviation="5"/>
			<feComposite in2="hardAlpha" operator="out" k2="-1" k3="1"/>
			<feColorMatrix type="matrix" values="0 0 0 0 0 0 0 0 0 0 0 0 0 0 0 0 0 0 0.15 0"/>
			<feBlend mode="normal" in2="BackgroundImageFix" result="effect_dropShadow_1"/>
			<feBlend mode="normal" in="SourceGraphic" in2="effect_dropShadow_1" result="shape"/>
		</filter>
		<clipPath id="clip1_1013">
			<rect id="ic_lock_24px" width="19.335812" height="16.690754" transform="translate(296.983887 87.195068)" fill="white" fill-opacity="0"/>
		</clipPath>
		<filter id="filter_1_1017_dd" x="419.917969" y="0.000000" width="63.143311" height="58.413330" filterUnits="userSpaceOnUse" color-interpolation-filters="sRGB">
			<feFlood flood-opacity="0" result="BackgroundImageFix"/>
			<feColorMatrix in="SourceAlpha" type="matrix" values="0 0 0 0 0 0 0 0 0 0 0 0 0 0 0 0 0 0 127 0" result="hardAlpha"/>
			<feOffset dx="5" dy="5"/>
			<feGaussianBlur stdDeviation="5"/>
			<feComposite in2="hardAlpha" operator="out" k2="-1" k3="1"/>
			<feColorMatrix type="matrix" values="0 0 0 0 0 0 0 0 0 0 0 0 0 0 0 0 0 0 0.15 0"/>
			<feBlend mode="normal" in2="BackgroundImageFix" result="effect_dropShadow_1"/>
			<feBlend mode="normal" in="SourceGraphic" in2="effect_dropShadow_1" result="shape"/>
		</filter>
		<clipPath id="clip1_1018">
			<rect id="Frame" width="22.558447" height="19.472555" transform="translate(435.557129 14.172607)" fill="white" fill-opacity="0"/>
		</clipPath>
		<filter id="filter_1_1058_dd" x="138.908691" y="216.238281" width="85.258301" height="60.282959" filterUnits="userSpaceOnUse" color-interpolation-filters="sRGB">
			<feFlood flood-opacity="0" result="BackgroundImageFix"/>
			<feColorMatrix in="SourceAlpha" type="matrix" values="0 0 0 0 0 0 0 0 0 0 0 0 0 0 0 0 0 0 127 0" result="hardAlpha"/>
			<feOffset dx="5" dy="5"/>
			<feGaussianBlur stdDeviation="3.33333"/>
			<feComposite in2="hardAlpha" operator="out" k2="-1" k3="1"/>
			<feColorMatrix type="matrix" values="0 0 0 0 0.062745 0 0 0 0 0.43922 0 0 0 0 0.69412 0 0 0 0.2 0"/>
			<feBlend mode="normal" in2="BackgroundImageFix" result="effect_dropShadow_1"/>
			<feBlend mode="normal" in="SourceGraphic" in2="effect_dropShadow_1" result="shape"/>
		</filter>
		<clipPath id="clip1_1063">
			<rect id="ic_play_arrow_48px" width="38.671623" height="38.671623" transform="translate(238.170898 226.877930)" fill="white" fill-opacity="0"/>
		</clipPath>
		<filter id="filter_1_1068_dd" x="216.085938" y="281.302490" width="144.071533" height="70.756592" filterUnits="userSpaceOnUse" color-interpolation-filters="sRGB">
			<feFlood flood-opacity="0" result="BackgroundImageFix"/>
			<feColorMatrix in="SourceAlpha" type="matrix" values="0 0 0 0 0 0 0 0 0 0 0 0 0 0 0 0 0 0 127 0" result="hardAlpha"/>
			<feOffset dx="0" dy="4"/>
			<feGaussianBlur stdDeviation="3.33333"/>
			<feComposite in2="hardAlpha" operator="out" k2="-1" k3="1"/>
			<feColorMatrix type="matrix" values="0 0 0 0 0.43529 0 0 0 0 0.81176 0 0 0 0 0.59216 0 0 0 0.2 0"/>
			<feBlend mode="normal" in2="BackgroundImageFix" result="effect_dropShadow_1"/>
			<feBlend mode="normal" in="SourceGraphic" in2="effect_dropShadow_1" result="shape"/>
		</filter>
		<linearGradient id="paint_linear_1_984_0" x1="302.313629" y1="-60.998680" x2="190.830200" y2="474.890167" gradientUnits="userSpaceOnUse">
			<stop stop-color="#D1ECFF"/>
			<stop offset="1.000000" stop-color="#1070B1"/>
		</linearGradient>
		<linearGradient id="paint_linear_1_1022_0" x1="450.651337" y1="170.140167" x2="406.095703" y2="193.030304" gradientUnits="userSpaceOnUse">
			<stop stop-color="#FFF8E1"/>
			<stop offset="1.000000" stop-color="#FFCC80"/>
		</linearGradient>
		<linearGradient id="paint_linear_1_1023_0" x1="471.793976" y1="183.566650" x2="471.793976" y2="245.811432" gradientUnits="userSpaceOnUse">
			<stop stop-color="#AF6CED"/>
			<stop offset="1.000000" stop-color="#5E199D"/>
		</linearGradient>
		<linearGradient id="paint_linear_1_1024_0" x1="510.264191" y1="232.115234" x2="510.264191" y2="320.737701" gradientUnits="userSpaceOnUse">
			<stop stop-color="#EB5757"/>
			<stop offset="1.000000" stop-color="#872727"/>
		</linearGradient>
		<linearGradient id="paint_linear_1_1025_0" x1="463.526917" y1="175.434143" x2="450.668854" y2="185.711349" gradientUnits="userSpaceOnUse">
			<stop stop-color="#FFF8E1"/>
			<stop offset="1.000000" stop-color="#FFCC80"/>
		</linearGradient>
		<linearGradient id="paint_linear_1_1027_0" x1="473.645721" y1="223.719971" x2="443.214783" y2="229.325714" gradientUnits="userSpaceOnUse">
			<stop stop-color="#FFF8E1"/>
			<stop offset="1.000000" stop-color="#FFCC80"/>
		</linearGradient>
		<linearGradient id="paint_linear_1_1043_0" x1="155.504639" y1="256.006805" x2="401.633423" y2="282.996399" gradientUnits="userSpaceOnUse">
			<stop offset="0.127122" stop-color="#FFFFFF"/>
			<stop offset="0.972261" stop-color="#FFFFFF" stop-opacity="0.800000"/>
		</linearGradient>
	</defs>
	<g opacity="0.400000">
		<path id="Vector" d="M254.396 171.212C334.826 146.24 386.277 -5.54004 502.917 49.9641C605.19 98.6316 536.18 294.013 375.949 377.103C248.058 443.423 124.328 465.498 54.7019 404.164C6.15015 361.394 -27.137 259.745 48.7036 201.641C96.5491 164.984 174.036 207.747 254.396 171.212Z" fill="#98C3E8" fill-opacity="1.000000" fill-rule="evenodd"/>
	</g>
	<g opacity="0.200000">
		<path id="Ellipse" d="M115.308 110.461C119.336 120.531 107.251 136.242 89.9299 141.479C75.0251 145.985 60.5234 145.507 56.4951 135.033C52.9316 125.768 64.1489 115.698 77.0393 110.461C89.9299 105.224 111.28 100.39 115.308 110.461Z" fill="#98C3E8" fill-opacity="1.000000" fill-rule="nonzero"/>
	</g>
	<g opacity="0.200000">
		<path id="Ellipse" d="M247.033 89.9163C243.898 81.9084 254.941 63.2214 268.626 59.1389C280.402 55.626 291.434 47.3481 294.567 55.6758C297.338 63.0425 288.854 79.7041 278.663 83.8054C268.473 87.9065 250.168 97.9241 247.033 89.9163Z" fill="#98C3E8" fill-opacity="1.000000" fill-rule="nonzero"/>
	</g>
	<g opacity="0.200000">
		<path id="Ellipse" d="M238.004 486.474C234.869 478.466 244.468 466.051 258.153 461.969C269.929 458.456 281.366 458.896 284.499 467.223C287.271 474.59 278.38 482.534 268.19 486.635C258 490.736 241.139 494.482 238.004 486.474Z" fill="#98C3E8" fill-opacity="1.000000" fill-rule="nonzero"/>
	</g>
	<g opacity="0.200000">
		<path id="Ellipse" d="M379.623 445.655C373.101 430.323 393.887 396.256 422.323 388.453C446.79 381.739 486.299 395.471 492.817 411.414C498.583 425.518 460.817 423.185 439.645 431.027C418.473 438.868 386.144 460.987 379.623 445.655Z" fill="#98C3E8" fill-opacity="1.000000" fill-rule="nonzero"/>
	</g>
	<mask id="mask1_983" mask-type="alpha" maskUnits="userSpaceOnUse" x="16.555176" y="40.908447" width="520.575195" height="394.498291">
		<path id="Vector" d="M253.592 174.53C330.05 148.31 375.447 1.18848 488.7 51.2C588.004 95.0518 526.903 284.515 375.447 368.75C254.56 435.982 136.516 460.632 68.1821 403.709C20.531 364.015 -14.01 267.381 57.1912 209.489C102.11 172.967 177.5 211.844 253.592 174.53Z" fill="#98C3E8" fill-opacity="1.000000" fill-rule="evenodd"/>
	</mask>
	<g mask="url(#mask1_983)">
		<rect id="Rectangle" x="-68.852051" y="-24.163574" width="648.685486" height="549.044189" fill="url(#paint_linear_1_984_0)" fill-opacity="1.000000"/>
	</g>
	<g mask="url(#mask1_983)">
		<path id="Vector 2" d="M12.9961 150.717C72.4758 180.711 139.073 264.667 139.073 304.754C139.073 354.067 34.5171 429.645 -13.4395 472.518L395.802 498.953C381.229 433.712 344.432 288.672 366.824 256.459C395.802 214.772 513.067 224.939 578.817 232.565L596.61 47.0085C564.582 60.3958 492.901 98.8628 453.756 88.6953C417.522 79.2839 348.015 38.7051 318.529 12.9475" stroke="#FFFFFF" stroke-opacity="0.200000" stroke-width="15.000000"/>
	</g>
	<g mask="url(#mask1_983)">
		<path id="Vector 2" d="M166.017 104.963C182.285 189.692 226.514 345.018 273.284 288.487C331.747 217.823 378.009 126.315 421.729 186.812C456.706 235.209 508.153 330.682 529.505 372.368" stroke="#FFFFFF" stroke-opacity="0.200000" stroke-width="15.000000"/>
	</g>
	<g mask="url(#mask1_983)">
		<path id="Union" d="M336.461 154.369C336.461 150.809 339.347 147.924 342.907 147.924C346.466 147.924 349.352 150.809 349.352 154.369C349.352 157.928 346.466 160.814 342.907 160.814C339.347 160.814 336.461 157.928 336.461 154.369ZM443.614 267.967C440.054 267.967 437.169 270.853 437.169 274.412C437.169 277.972 440.054 280.857 443.614 280.857C447.174 280.857 450.059 277.972 450.059 274.412C450.059 270.853 447.174 267.967 443.614 267.967ZM82.6787 280.857C79.1191 280.857 76.2334 283.743 76.2334 287.302C76.2334 290.862 79.1191 293.748 82.6787 293.748C86.2383 293.748 89.124 290.862 89.124 287.302C89.124 283.743 86.2383 280.857 82.6787 280.857ZM222.863 363.034C219.304 363.034 216.418 365.92 216.418 369.48C216.418 373.039 219.304 375.925 222.863 375.925C226.423 375.925 229.309 373.039 229.309 369.48C229.309 365.92 226.423 363.034 222.863 363.034Z" clip-rule="evenodd" fill="#FFFFFF" fill-opacity="0.600000" fill-rule="evenodd"/>
	</g>
	<g mask="url(#mask1_983)">
		<circle id="Ellipse" cx="58.509033" cy="357.395020" r="13.724493" stroke="#FFFFFF" stroke-opacity="0.400000" stroke-width="8.000000"/>
		<circle id="Ellipse" cx="525.790771" cy="134.227295" r="13.724493" stroke="#FFFFFF" stroke-opacity="0.400000" stroke-width="8.000000"/>
		<circle id="Ellipse" cx="324.376465" cy="321.945801" r="13.724493" stroke="#FFFFFF" stroke-opacity="0.400000" stroke-width="8.000000"/>
	</g>
	<g filter="url(#filter_1_998_dd)">
		<rect id="Rectangle" x="364.659424" y="97.167480" rx="10.000000" width="70.897972" height="70.897972" fill="#FFFFFF" fill-opacity="1.000000"/>
	</g>
	<rect id="ic_home_48px" width="38.671623" height="38.671623" transform="translate(380.772461 113.280273)" fill="#FFFFFF" fill-opacity="0"/>
	<g clip-path="url(#clip1_999)">
		<path id="Vector" d="M396.886 145.507L396.886 135.839L403.331 135.839L403.331 145.507L411.387 145.507L411.387 132.616L416.221 132.616L400.108 118.114L383.995 132.616L388.829 132.616L388.829 145.507L396.886 145.507Z" fill="#5A98D0" fill-opacity="1.000000" fill-rule="nonzero"/>
	</g>
	<g filter="url(#filter_1_1004_dd)">
		<path id="Vector" d="M332.427 10L354.526 10C357.576 10 360.048 12.1194 360.048 14.7339L360.048 33.6794C360.048 36.2939 357.576 38.4133 354.526 38.4133L332.427 38.4133C329.377 38.4133 326.905 36.2939 326.905 33.6794L326.905 14.7339C326.905 12.1194 329.377 10 332.427 10Z" fill="#56CCF2" fill-opacity="1.000000" fill-rule="evenodd"/>
	</g>
	<rect id="ic_ac_unit_24px" width="19.335812" height="16.690775" transform="translate(334.044434 15.563721)" fill="#FFFFFF" fill-opacity="0"/>
	<g clip-path="url(#clip1_1005)">
		<path id="Vector" d="M351.769 23.2136L348.409 23.2136L351.02 20.9604L349.884 19.9729L346.129 23.2136L344.518 23.2136L344.518 21.8228L348.272 18.582L347.128 17.6013L344.518 19.8545L344.518 16.9546L342.907 16.9546L342.907 19.8545L340.296 17.6013L339.152 18.582L342.907 21.8228L342.907 23.2136L341.295 23.2136L337.541 19.9729L336.405 20.9604L339.015 23.2136L335.656 23.2136L335.656 24.6045L339.015 24.6045L336.405 26.8577L337.541 27.8452L341.295 24.6045L342.907 24.6045L342.907 25.9954L339.152 29.2363L340.296 30.2168L342.907 27.9636L342.907 30.8635L344.518 30.8635L344.518 27.9636L347.128 30.2168L348.272 29.2363L344.518 25.9954L344.518 24.6045L346.129 24.6045L349.884 27.8452L351.02 26.8577L348.409 24.6045L351.769 24.6045L351.769 23.2136Z" fill="#FFFFFF" fill-opacity="1.000000" fill-rule="nonzero"/>
	</g>
	<g filter="url(#filter_1_1009_dd)">
		<path id="Vector" d="M472.5 81.6311L494.6 81.6311C497.649 81.6311 500.121 83.7505 500.121 86.365L500.121 105.311C500.121 107.925 497.649 110.044 494.6 110.044L472.5 110.044C469.45 110.044 466.978 107.925 466.978 105.311L466.978 86.365C466.978 83.7505 469.45 81.6311 472.5 81.6311Z" fill="#F2C94C" fill-opacity="1.000000" fill-rule="evenodd"/>
	</g>
	<path id="Vector" d="M491.148 93.4541C491.148 89.9768 487.925 87.1951 483.897 87.1951C479.869 87.1951 476.646 89.9768 476.646 93.4541C476.646 95.6101 477.935 97.5571 479.869 98.6699L479.869 100.409C479.869 101.313 480.513 102.078 481.48 102.356L481.48 102.495C481.48 103.677 482.527 104.581 483.897 104.581C485.267 104.581 486.314 103.677 486.314 102.495L486.314 102.356C487.281 102.078 487.925 101.313 487.925 100.409L487.925 98.6699C489.859 97.5571 491.148 95.6101 491.148 93.4541ZM478.257 93.4541C478.257 90.7419 480.755 88.5859 483.897 88.5859C487.039 88.5859 489.537 90.7419 489.537 93.4541C489.537 95.8882 487.442 97.905 484.703 98.2527L484.703 96.5142L486.072 95.3318C486.395 95.0537 486.395 94.6365 486.072 94.3582C485.75 94.0801 485.267 94.0801 484.944 94.3582L483.897 95.2622L482.85 94.3582C482.527 94.0801 482.044 94.0801 481.722 94.3582C481.399 94.6365 481.399 95.0537 481.722 95.3318L483.091 96.5142L483.091 98.2527C480.352 97.905 478.257 95.8882 478.257 93.4541ZM483.897 103.19C483.414 103.19 483.091 102.912 483.091 102.495L484.703 102.495C484.703 102.912 484.38 103.19 483.897 103.19ZM486.314 100.409C486.314 100.826 485.992 101.104 485.508 101.104L482.286 101.104C481.802 101.104 481.48 100.826 481.48 100.409L481.48 99.3655C482.205 99.574 483.011 99.7131 483.897 99.7131C484.783 99.7131 485.589 99.574 486.314 99.3655L486.314 100.409Z" fill="#FFFFFF" fill-opacity="1.000000" fill-rule="nonzero"/>
	<g filter="url(#filter_1_1012_dd)">
		<path id="Vector" d="M295.255 81.6311L317.355 81.6311C320.404 81.6311 322.876 83.7505 322.876 86.365L322.876 105.311C322.876 107.925 320.404 110.044 317.355 110.044L295.255 110.044C292.205 110.044 289.733 107.925 289.733 105.311L289.733 86.365C289.733 83.7505 292.205 81.6311 295.255 81.6311Z" fill="#F58A8A" fill-opacity="1.000000" fill-rule="evenodd"/>
	</g>
	<rect id="ic_lock_24px" width="19.335812" height="16.690754" transform="translate(296.983887 87.195068)" fill="#FFFFFF" fill-opacity="0"/>
	<g clip-path="url(#clip1_1013)">
		<path id="Vector" d="M311.486 92.7585L310.68 92.7585L310.68 91.3677C310.68 89.4482 308.875 87.8904 306.652 87.8904C304.428 87.8904 302.624 89.4482 302.624 91.3677L302.624 92.7585L301.818 92.7585C300.932 92.7585 300.207 93.3845 300.207 94.1494L300.207 101.104C300.207 101.869 300.932 102.495 301.818 102.495L311.486 102.495C312.372 102.495 313.097 101.869 313.097 101.104L313.097 94.1494C313.097 93.3845 312.372 92.7585 311.486 92.7585ZM306.652 99.0176C305.766 99.0176 305.041 98.3916 305.041 97.6267C305.041 96.8616 305.766 96.2358 306.652 96.2358C307.538 96.2358 308.263 96.8616 308.263 97.6267C308.263 98.3916 307.538 99.0176 306.652 99.0176ZM309.149 92.7585L304.154 92.7585L304.154 91.3677C304.154 90.1785 305.274 89.2117 306.652 89.2117C308.03 89.2117 309.149 90.1785 309.149 91.3677L309.149 92.7585Z" fill="#FFFFFF" fill-opacity="1.000000" fill-rule="nonzero"/>
	</g>
	<g filter="url(#filter_1_1017_dd)">
		<path id="Vector" d="M435.44 10L457.54 10C460.589 10 463.061 12.1194 463.061 14.7339L463.061 33.6794C463.061 36.2939 460.589 38.4133 457.54 38.4133L435.44 38.4133C432.39 38.4133 429.918 36.2939 429.918 33.6794L429.918 14.7339C429.918 12.1194 432.39 10 435.44 10Z" fill="#6FCF97" fill-opacity="1.000000" fill-rule="evenodd"/>
	</g>
	<rect id="Frame" width="22.558447" height="19.472555" transform="translate(435.557129 14.172607)" fill="#FFFFFF" fill-opacity="0"/>
	<g clip-path="url(#clip1_1018)">
		<path id="Vector" d="M437.958 20.3596L451.115 20.3596L451.115 27.458L437.958 27.458L437.958 20.3596Z" fill="#FFFFFF" fill-opacity="1.000000" fill-rule="evenodd"/>
		<path id="Vector" d="M454.662 21.7722L451.758 22.8259L451.758 25.0217L454.662 26.0754L455.715 26.0754L455.715 21.7722L454.662 21.7722Z" fill="#FFFFFF" fill-opacity="1.000000" fill-rule="nonzero"/>
	</g>
	<path id="Vector" d="M404.118 170.079C403.159 169.58 401.94 167.553 402.84 164.037C403.454 161.636 405.73 160.009 405.73 160.009C405.73 160.009 407.635 165.277 411.152 167.835C412.751 167.835 415.948 167.835 415.948 167.835L413.39 172.311C413.39 172.311 426.679 186.691 429.695 187.337C434.171 188.296 444.401 190.534 444.401 190.534L439.925 199.486C439.925 199.486 429.695 198.502 425.219 196.608C421.383 194.986 408.147 172.311 408.147 172.311C408.147 172.311 406.021 171.07 404.118 170.079Z" fill="url(#paint_linear_1_1022_0)" fill-opacity="1.000000" fill-rule="evenodd"/>
	<path id="Vector 2" d="M439.97 199.486C444.402 200.56 453.667 203.112 455.278 204.723C457.292 206.737 456.084 216.808 457.695 220.03C459.306 223.253 469.377 223.253 472.6 232.518C475.178 239.93 477.165 244.469 477.836 245.812C489.209 243.45 494.96 240.77 503.618 232.518C498.112 219.896 485.249 193.121 477.836 186.998C468.571 179.344 465.751 186.595 457.695 188.61C451.25 190.221 446.147 190.624 444.402 190.624L439.97 199.486Z" fill="url(#paint_linear_1_1023_0)" fill-opacity="1.000000" fill-rule="evenodd"/>
	<path id="Vector 3" d="M480.253 245.006C481.328 259.105 481.381 289.72 484.282 296.165C487.182 302.61 511.271 315.232 522.953 320.738L525.37 313.89C518.522 307.042 501.2 293.426 499.589 288.914C497.978 284.403 501.335 270.115 502.006 262.327C503.08 269.713 505.309 283.436 512.077 288.914C518.844 294.393 531.816 303.953 536.247 308.653L540.275 300.999C536.247 294.688 528.593 285.289 525.37 280.858C521.761 275.896 515.702 268.37 516.508 253.465C517.314 238.561 503.618 232.115 503.618 232.115C495.266 240.587 490.078 243.075 480.253 245.006Z" fill="url(#paint_linear_1_1024_0)" fill-opacity="1.000000" fill-rule="evenodd"/>
	<path id="Vector 4" d="M450.847 170.885C450.31 172.228 450.766 176.042 450.444 177.331C450.122 178.62 450.041 180.688 449.638 181.359L451.652 180.956L452.861 186.193C454.07 186.327 455.198 186.435 458.098 184.179C458.5 184.984 458.903 186.596 458.098 188.61C459.573 188.158 460.387 187.866 461.723 186.999L458.903 179.345C460.112 178.136 460.515 176.525 460.112 175.719C459.656 174.808 458.5 175.182 457.695 175.316C456.889 174.242 454.714 171.53 450.847 170.885Z" fill="url(#paint_linear_1_1025_0)" fill-opacity="1.000000" fill-rule="evenodd"/>
	<path id="Vector 5" d="M450.444 170.885C452.189 171.422 456.083 173.06 457.695 175.316C458.366 175.048 459.79 174.752 460.112 175.719C460.434 176.686 459.44 178.539 458.903 179.344C460.112 182.835 462.771 190.06 463.737 191.026C464.946 192.235 470.585 191.429 473.002 192.638C475.419 193.846 477.433 195.458 478.642 199.889C479.85 204.32 478.642 204.32 485.49 204.32C492.338 204.32 498.783 206.737 499.186 201.903C499.589 197.069 504.02 192.638 499.186 189.415C494.352 186.192 494.755 183.373 495.561 180.956C496.366 178.539 494.352 175.719 489.921 175.719C485.49 175.719 485.893 179.747 478.642 176.525C471.391 173.302 470.585 168.065 468.974 166.454C467.363 164.843 464.14 158.397 456.486 160.814C448.833 163.231 447.221 168.468 450.444 170.885Z" fill="#F2994A" fill-opacity="1.000000" fill-rule="evenodd"/>
	<path id="Vector 6" d="M461.723 222.85L442.387 224.059L440.776 221.239L440.776 227.281L442.387 227.281C449.236 228.49 463.415 230.907 465.349 230.907C467.282 230.907 468.84 228.49 469.377 227.281C467.766 225.938 463.979 223.172 461.723 222.85Z" fill="url(#paint_linear_1_1027_0)" fill-opacity="1.000000" fill-rule="evenodd"/>
	<path id="Vector 7" d="M440.776 216.405L440.776 230.101L433.928 230.101L433.928 216.405L440.776 216.405Z" fill="#F2C94C" fill-opacity="1.000000" fill-rule="evenodd"/>
	<path id="Vector 8" d="M545.915 323.155C544.948 321.543 539.066 313.755 536.247 308.653L540.275 300.999C542.155 302.61 542.289 302.61 544.303 305.43C545.24 306.741 547.123 325.169 545.915 323.155ZM536.247 332.017C534.313 331.695 526.444 324.229 522.953 320.738L525.37 313.89C526.982 314.561 530.365 315.743 531.01 316.709C531.816 317.918 538.664 332.42 536.247 332.017Z" fill="#5A98D0" fill-opacity="1.000000" fill-rule="evenodd"/>
	<g opacity="0.200000">
		<path id="Vector 9" d="M502.006 262.73L504.423 250.646C505.631 258.971 504.02 270.384 508.854 285.692C504.826 278.038 502.409 267.162 502.006 262.73Z" fill="#000000" fill-opacity="1.000000" fill-rule="evenodd"/>
	</g>
	<path id="Vector 8" d="M124.976 393.649L128.602 399.692C128.333 403.854 127.474 412.019 126.185 411.374C124.896 410.729 120.813 400.363 118.934 395.261L124.976 393.649ZM157.605 431.515L156.397 427.487L162.842 426.279C165.93 427.89 171.865 431.435 170.899 432.724C170.576 433.368 161.902 432.187 157.605 431.515Z" fill="#D06262" fill-opacity="1.000000" fill-rule="evenodd"/>
	<path id="Vector 2" d="M103.89 357.39C99.5969 352.93 95.6953 344.524 94.2812 340.879C98.4124 338.881 107.593 334.314 111.267 332.035C114.941 329.755 121.908 324.583 124.933 322.283C126.698 323.873 131.832 327.797 138.254 330.766C154.747 338.553 164.167 348.609 167.422 357.614C170.027 364.818 159.357 375.481 153.295 379.949C149.783 373.98 147.67 371.567 143.506 365.882L144.922 359.279L136.604 356.808C137.833 358.448 141.863 363.848 148.145 372.332C159.48 386.5 163.406 410.707 163.952 421.04C161.837 421.504 156.63 422.361 152.72 422.073C152.259 417.054 145.97 405.905 139.966 396.034C138.744 397.495 137.052 399.242 136.065 399.333C131.075 397.85 129.529 391.304 129.38 388.217L133.151 385.057C132.635 384.232 132.151 383.457 131.708 382.744C125.534 372.794 109.258 362.964 103.89 357.39Z" fill="#1F3F68" fill-opacity="1.000000" fill-rule="evenodd"/>
	<path id="Vector" d="M87.2407 339.099C83.146 329.767 83.9485 329.693 81.6843 327.07C79.4204 324.446 78.8669 318.429 77.8435 316.096C77.3289 314.924 73.1812 309.794 69.8652 303.48C69.8652 303.48 69.7656 303.298 69.5972 302.964C67.6833 299.229 66.0967 295.114 65.7344 291.175C65.6509 290.269 65.6326 289.373 65.6897 288.492C65.9236 281.594 71.1711 277.144 71.1711 277.144C74.2983 273.81 77.2319 273.25 78.2478 273.34C80.6931 275.003 84.3235 277.474 85.6069 277.356C86.8906 277.238 88.7214 274.815 89.9299 273.606C93.0881 273.941 95.1157 273.687 96.9951 273.451C98.762 273.229 100.398 273.023 102.719 273.34C103.564 273.455 104.616 273.725 105.833 274.037C113.121 275.904 126.361 279.297 137.061 260.313C138.302 260.604 141.098 261.706 143.103 261.521C136.255 281.663 130.213 287.932 124.573 289.906C120.245 291.421 116.835 291.843 114.141 291.815C113.647 294.443 112.99 298.762 111.895 303.167C114.146 307.288 116.526 311.074 118.395 312.771C119.976 314.206 121.624 315.432 123.049 316.492C125.234 318.119 126.896 319.355 126.988 320.358C127.021 320.709 126.861 321.032 126.464 321.333C114.754 330.365 90.5164 346.565 87.2407 339.099Z" fill="#FFFFFF" fill-opacity="1.000000" fill-rule="evenodd"/>
	<path id="Vector 2" d="M97.9595 301.706C95.4233 302.169 88.8608 296.609 85.916 293.914C94.6143 300.255 96.3469 298.906 103.768 293.131C105.595 291.709 107.768 290.019 110.474 288.108C109.879 288.972 104.029 300.596 97.9595 301.706ZM71.1941 305.381C76.7195 311.21 90.6299 323.173 102.068 324.386C113.507 325.599 115.284 314.136 114.743 308.252L111.683 303.013C110.167 307.063 107.283 316.867 103.521 318.184C98.8176 319.831 83.9707 316.746 71.1941 305.381ZM137.042 357.172L126.234 345.221C129.784 345.704 138.184 347.601 143.381 351.33C148.579 355.059 146.26 360.639 144.451 362.963L144.922 359.279L137.042 357.172ZM133.133 385.04L139.818 396.156L138.726 397.47C137.739 395.538 135.148 393.754 132.958 391.933C131.205 390.476 130.838 387.948 130.873 386.866L133.133 385.04Z" fill="#000000" fill-opacity="0.200000" fill-rule="evenodd"/>
	<path id="Vector 3" d="M110.474 288.108C111.921 289.378 113.123 289.845 114.502 290.122L115.711 287.302L118.128 286.094L118.531 283.274L115.308 280.454L113.294 282.871L113.697 280.857C113.294 281.126 112.005 281.824 111.683 282.469C111.36 283.113 111.548 284.617 111.683 285.288L110.474 288.108Z" fill="#F2994A" fill-opacity="1.000000" fill-rule="evenodd"/>
	<path id="Vector 4" d="M143.103 261.521L143.909 257.493L143.909 253.062L145.52 250.242L143.909 250.242C142.432 250.914 139.397 252.659 139.075 254.271C138.753 255.882 137.464 259.104 137.061 260.313C138.404 260.85 141.814 261.844 143.103 261.521Z" fill="#F2994A" fill-opacity="1.000000" fill-rule="evenodd"/>
	<path id="Vector 6" d="M79.4563 270.384C78.6506 269.175 76.8782 266.436 76.2336 265.147C75.428 263.536 72.2053 257.896 73.4138 255.479C74.6223 253.062 76.6365 250.645 81.4705 250.645C86.3044 250.645 93.5554 245.408 95.9722 247.423C97.9058 249.034 93.2869 254.271 90.7356 256.688L90.3328 254.673L83.4846 255.076C81.739 255.345 78.4089 257.09 79.0535 261.924C78.0867 261.924 77.0393 262.461 76.6365 262.73C77.0393 263.401 78.1672 264.986 79.4563 265.953C80.7454 266.919 79.9934 269.31 79.4563 270.384Z" fill="#316099" fill-opacity="1.000000" fill-rule="evenodd"/>
	<path id="Vector 5" d="M78.2478 273.606C80.5305 275.083 84.2097 277.635 85.4988 277.635C86.7878 277.635 88.99 274.815 89.9299 273.606L89.5271 269.981C90.7356 269.444 92.9109 267.161 91.9441 262.327C90.9773 257.493 90.467 255.21 90.3328 254.673C87.9158 254.539 82.5984 254.673 80.6648 256.285C78.7312 257.896 78.7849 260.984 79.0535 262.327C78.2478 262.327 76.6365 262.488 76.6365 263.133C76.6365 263.938 79.0535 265.55 79.8591 265.953C80.6648 266.355 79.8591 269.578 79.8591 270.384C79.8591 271.028 79.322 273.069 78.2478 273.606Z" fill="#F2994A" fill-opacity="1.000000" fill-rule="evenodd"/>
	<path id="Vector 7" d="M128.602 399.692L133.436 398.081C131.278 395.601 130.552 394.187 129.81 391.635L124.976 393.649L128.602 399.692ZM162.842 426.279L162.439 421.445C159.594 422.207 157.904 422.342 154.785 422.25L156.397 427.487L162.842 426.279Z" fill="#98C3E8" fill-opacity="1.000000" fill-rule="evenodd"/>
	<g opacity="0.800000">
		<rect id="Rectangle" x="150.354004" y="200.291504" rx="5.000000" width="214.533936" height="152.512268" fill="url(#paint_linear_1_1043_0)" fill-opacity="1.000000"/>
	</g>
	<path id="Rectangle" d="M155.354 200.292L212.376 200.292L212.376 352.804L155.354 352.804C152.593 352.804 150.354 350.565 150.354 347.804L150.354 205.292C150.354 202.53 152.593 200.292 155.354 200.292Z" fill="#FFFFFF" fill-opacity="1.000000" fill-rule="evenodd"/>
	<circle id="Ellipse" cx="160.021729" cy="209.959473" r="3.222635" fill="#FA9595" fill-opacity="1.000000"/>
	<circle id="Ellipse" cx="170.495361" cy="209.959473" r="3.222635" fill="#FDF397" fill-opacity="1.000000"/>
	<circle id="Ellipse" cx="180.163330" cy="209.959473" r="3.222635" fill="#C1FEBB" fill-opacity="1.000000"/>
	<g opacity="0.400000">
		<path id="Union" d="M157.606 285.691L204.334 285.691L204.334 291.331L157.606 291.331L157.606 285.691ZM157.605 296.971L204.333 296.971L204.333 302.61L157.605 302.61L157.605 296.971ZM189.026 309.861L157.605 309.861L157.605 315.501L189.026 315.501L189.026 309.861Z" clip-rule="evenodd" fill="#5A98D0" fill-opacity="1.000000" fill-rule="evenodd"/>
	</g>
	<g opacity="0.100000">
		<path id="Union" d="M300.207 220.433L346.935 220.433L346.935 226.073L300.207 226.073L300.207 220.433ZM300.207 231.712L346.935 231.712L346.935 237.352L300.207 237.352L300.207 231.712ZM331.627 244.603L300.207 244.603L300.207 250.242L331.627 250.242L331.627 244.603Z" clip-rule="evenodd" fill="#000000" fill-opacity="1.000000" fill-rule="evenodd"/>
	</g>
	<g filter="url(#filter_1_1058_dd)">
		<rect id="Rectangle" x="143.908691" y="221.238281" rx="5.000000" width="65.258362" height="40.282940" fill="#56CCF2" fill-opacity="1.000000"/>
	</g>
	<path id="afrian" d="M163.628 250.85Q163.503 250.608 163.41 250.061Q162.503 251.006 161.191 251.006Q159.917 251.006 159.113 250.28Q158.308 249.553 158.308 248.483Q158.308 247.131 159.312 246.408Q160.316 245.686 162.183 245.686L163.347 245.686L163.347 245.131Q163.347 244.475 162.98 244.08Q162.613 243.686 161.863 243.686Q161.214 243.686 160.8 244.01Q160.386 244.334 160.386 244.834L158.488 244.834Q158.488 244.139 158.949 243.533Q159.41 242.928 160.203 242.584Q160.996 242.24 161.972 242.24Q163.457 242.24 164.339 242.987Q165.222 243.733 165.246 245.084L165.246 248.897Q165.246 250.037 165.566 250.717L165.566 250.85L163.628 250.85ZM161.542 249.483Q162.105 249.483 162.601 249.209Q163.097 248.936 163.347 248.475L163.347 246.881L162.324 246.881Q161.269 246.881 160.738 247.248Q160.207 247.615 160.207 248.287Q160.207 248.834 160.57 249.158Q160.933 249.483 161.542 249.483ZM168.702 250.85L168.702 243.803L167.413 243.803L167.413 242.397L168.702 242.397L168.702 241.623Q168.702 240.217 169.483 239.451Q170.264 238.686 171.671 238.686Q172.171 238.686 172.733 238.826L172.686 240.311Q172.374 240.248 171.96 240.248Q170.6 240.248 170.6 241.647L170.6 242.397L172.319 242.397L172.319 243.803L170.6 243.803L170.6 250.85L168.702 250.85ZM178.932 244.131Q178.557 244.069 178.158 244.069Q176.853 244.069 176.4 245.069L176.4 250.85L174.502 250.85L174.502 242.397L176.314 242.397L176.361 243.342Q177.049 242.24 178.267 242.24Q178.674 242.24 178.939 242.35L178.932 244.131ZM182.95 250.85L181.052 250.85L181.052 242.397L182.95 242.397L182.95 250.85ZM180.935 240.201Q180.935 239.764 181.212 239.475Q181.489 239.186 182.005 239.186Q182.521 239.186 182.802 239.475Q183.083 239.764 183.083 240.201Q183.083 240.631 182.802 240.916Q182.521 241.201 182.005 241.201Q181.489 241.201 181.212 240.916Q180.935 240.631 180.935 240.201ZM190.867 250.85Q190.742 250.608 190.649 250.061Q189.742 251.006 188.43 251.006Q187.157 251.006 186.352 250.28Q185.547 249.553 185.547 248.483Q185.547 247.131 186.551 246.408Q187.555 245.686 189.422 245.686L190.586 245.686L190.586 245.131Q190.586 244.475 190.219 244.08Q189.852 243.686 189.102 243.686Q188.453 243.686 188.039 244.01Q187.625 244.334 187.625 244.834L185.727 244.834Q185.727 244.139 186.188 243.533Q186.649 242.928 187.442 242.584Q188.235 242.24 189.211 242.24Q190.696 242.24 191.578 242.987Q192.461 243.733 192.485 245.084L192.485 248.897Q192.485 250.037 192.805 250.717L192.805 250.85L190.867 250.85ZM188.782 249.483Q189.344 249.483 189.84 249.209Q190.336 248.936 190.586 248.475L190.586 246.881L189.563 246.881Q188.508 246.881 187.977 247.248Q187.446 247.615 187.446 248.287Q187.446 248.834 187.809 249.158Q188.172 249.483 188.782 249.483ZM160.339 288.397L160.394 289.373Q161.332 288.24 162.855 288.24Q165.496 288.24 165.542 291.264L165.542 296.85L163.644 296.85L163.644 291.373Q163.644 290.569 163.296 290.182Q162.949 289.795 162.16 289.795Q161.011 289.795 160.449 290.834L160.449 296.85L158.55 296.85L158.55 288.397L160.339 288.397Z" fill="#FFFFFF" fill-opacity="1.000000" fill-rule="evenodd"/>
	<rect id="Rectangle" x="226.085938" y="214.793213" rx="5.000000" width="63.647041" height="62.035725" fill="#EB5757" fill-opacity="1.000000"/>
	<rect id="ic_play_arrow_48px" width="38.671623" height="38.671623" transform="translate(238.170898 226.877930)" fill="#FFFFFF" fill-opacity="0"/>
	<g clip-path="url(#clip1_1063)">
		<path id="Vector" d="M251.062 234.935L251.062 257.493L268.786 246.214L251.062 234.935Z" fill="#FFFFFF" fill-opacity="1.000000" fill-rule="nonzero"/>
	</g>
	<g filter="url(#filter_1_1068_dd)">
		<rect id="Rectangle" x="226.085938" y="287.302490" rx="5.000000" width="124.071449" height="50.756504" fill="#6FCF97" fill-opacity="1.000000"/>
	</g>
	<path id="Vector 4.1" d="M236.962 323.557C244.616 318.32 247.839 311.472 262.341 311.472C276.843 311.472 278.115 319.529 286.913 319.529C297.387 319.529 307.458 303.818 318.737 303.818C330.016 303.818 332.836 311.875 338.878 312.278" stroke="#000000" stroke-opacity="0.100000" stroke-width="2.000000" stroke-linejoin="round" stroke-linecap="round"/>
	<path id="Vector 4" d="M236.56 323.96C244.213 318.723 246.228 303.416 260.729 303.416C275.231 303.416 278.518 316.709 287.316 316.709C297.79 316.709 307.055 294.956 318.334 294.956C329.613 294.956 333.239 311.875 339.281 312.278" stroke="#FFFFFF" stroke-opacity="1.000000" stroke-width="2.000000" stroke-linejoin="round" stroke-linecap="round"/>
</svg>
