<svg width="336.000122" height="302.127441" viewBox="0 0 336 302.127" fill="none" xmlns="http://www.w3.org/2000/svg" xmlns:xlink="http://www.w3.org/1999/xlink">
	<desc>
			Created with Pixso.
	</desc>
	<defs>
		<filter id="filter_13_449_dd" x="171.290771" y="12.896973" width="143.023926" height="143.023926" filterUnits="userSpaceOnUse" color-interpolation-filters="sRGB">
			<feFlood flood-opacity="0" result="BackgroundImageFix"/>
			<feColorMatrix in="SourceAlpha" type="matrix" values="0 0 0 0 0 0 0 0 0 0 0 0 0 0 0 0 0 0 127 0" result="hardAlpha"/>
			<feOffset dx="0" dy="0"/>
			<feGaussianBlur stdDeviation="16.6667"/>
			<feComposite in2="hardAlpha" operator="out" k2="-1" k3="1"/>
			<feColorMatrix type="matrix" values="0 0 0 0 0.062745 0 0 0 0 0.43922 0 0 0 0 0.69412 0 0 0 0.25 0"/>
			<feBlend mode="normal" in2="BackgroundImageFix" result="effect_dropShadow_1"/>
			<feBlend mode="normal" in="SourceGraphic" in2="effect_dropShadow_1" result="shape"/>
		</filter>
		<clipPath id="clip13_450">
			<rect id="ic_home_48px" width="23.467611" height="23.467611" transform="translate(231.068909 72.674805)" fill="white" fill-opacity="0"/>
		</clipPath>
		<filter id="filter_13_455_dd" x="188.379761" y="0.000000" width="50.112793" height="47.242432" filterUnits="userSpaceOnUse" color-interpolation-filters="sRGB">
			<feFlood flood-opacity="0" result="BackgroundImageFix"/>
			<feColorMatrix in="SourceAlpha" type="matrix" values="0 0 0 0 0 0 0 0 0 0 0 0 0 0 0 0 0 0 127 0" result="hardAlpha"/>
			<feOffset dx="5" dy="5"/>
			<feGaussianBlur stdDeviation="5"/>
			<feComposite in2="hardAlpha" operator="out" k2="-1" k3="1"/>
			<feColorMatrix type="matrix" values="0 0 0 0 0 0 0 0 0 0 0 0 0 0 0 0 0 0 0.15 0"/>
			<feBlend mode="normal" in2="BackgroundImageFix" result="effect_dropShadow_1"/>
			<feBlend mode="normal" in="SourceGraphic" in2="effect_dropShadow_1" result="shape"/>
		</filter>
		<clipPath id="clip13_456">
			<rect id="ic_ac_unit_24px" width="11.733806" height="10.128684" transform="translate(202.712219 13.376465)" fill="white" fill-opacity="0"/>
		</clipPath>
		<filter id="filter_13_460_dd" x="273.382202" y="43.468750" width="50.112793" height="47.242432" filterUnits="userSpaceOnUse" color-interpolation-filters="sRGB">
			<feFlood flood-opacity="0" result="BackgroundImageFix"/>
			<feColorMatrix in="SourceAlpha" type="matrix" values="0 0 0 0 0 0 0 0 0 0 0 0 0 0 0 0 0 0 127 0" result="hardAlpha"/>
			<feOffset dx="5" dy="5"/>
			<feGaussianBlur stdDeviation="5"/>
			<feComposite in2="hardAlpha" operator="out" k2="-1" k3="1"/>
			<feColorMatrix type="matrix" values="0 0 0 0 0 0 0 0 0 0 0 0 0 0 0 0 0 0 0.15 0"/>
			<feBlend mode="normal" in2="BackgroundImageFix" result="effect_dropShadow_1"/>
			<feBlend mode="normal" in="SourceGraphic" in2="effect_dropShadow_1" result="shape"/>
		</filter>
		<filter id="filter_13_463_dd" x="165.822388" y="43.468750" width="50.112793" height="47.242432" filterUnits="userSpaceOnUse" color-interpolation-filters="sRGB">
			<feFlood flood-opacity="0" result="BackgroundImageFix"/>
			<feColorMatrix in="SourceAlpha" type="matrix" values="0 0 0 0 0 0 0 0 0 0 0 0 0 0 0 0 0 0 127 0" result="hardAlpha"/>
			<feOffset dx="5" dy="5"/>
			<feGaussianBlur stdDeviation="5"/>
			<feComposite in2="hardAlpha" operator="out" k2="-1" k3="1"/>
			<feColorMatrix type="matrix" values="0 0 0 0 0 0 0 0 0 0 0 0 0 0 0 0 0 0 0.15 0"/>
			<feBlend mode="normal" in2="BackgroundImageFix" result="effect_dropShadow_1"/>
			<feBlend mode="normal" in="SourceGraphic" in2="effect_dropShadow_1" result="shape"/>
		</filter>
		<clipPath id="clip13_464">
			<rect id="ic_lock_24px" width="11.733806" height="10.128672" transform="translate(180.222290 56.845215)" fill="white" fill-opacity="0"/>
		</clipPath>
		<filter id="filter_13_468_dd" x="250.892578" y="0.000000" width="50.112793" height="47.242432" filterUnits="userSpaceOnUse" color-interpolation-filters="sRGB">
			<feFlood flood-opacity="0" result="BackgroundImageFix"/>
			<feColorMatrix in="SourceAlpha" type="matrix" values="0 0 0 0 0 0 0 0 0 0 0 0 0 0 0 0 0 0 127 0" result="hardAlpha"/>
			<feOffset dx="5" dy="5"/>
			<feGaussianBlur stdDeviation="5"/>
			<feComposite in2="hardAlpha" operator="out" k2="-1" k3="1"/>
			<feColorMatrix type="matrix" values="0 0 0 0 0 0 0 0 0 0 0 0 0 0 0 0 0 0 0.15 0"/>
			<feBlend mode="normal" in2="BackgroundImageFix" result="effect_dropShadow_1"/>
			<feBlend mode="normal" in="SourceGraphic" in2="effect_dropShadow_1" result="shape"/>
		</filter>
		<clipPath id="clip13_469">
			<rect id="Frame" width="13.689441" height="11.816789" transform="translate(264.314575 12.532227)" fill="white" fill-opacity="0"/>
		</clipPath>
		<filter id="filter_13_509_dd" x="82.329834" y="133.188477" width="59.601624" height="44.445312" filterUnits="userSpaceOnUse" color-interpolation-filters="sRGB">
			<feFlood flood-opacity="0" result="BackgroundImageFix"/>
			<feColorMatrix in="SourceAlpha" type="matrix" values="0 0 0 0 0 0 0 0 0 0 0 0 0 0 0 0 0 0 127 0" result="hardAlpha"/>
			<feOffset dx="5" dy="5"/>
			<feGaussianBlur stdDeviation="3.33333"/>
			<feComposite in2="hardAlpha" operator="out" k2="-1" k3="1"/>
			<feColorMatrix type="matrix" values="0 0 0 0 0.062745 0 0 0 0 0.43922 0 0 0 0 0.69412 0 0 0 0.2 0"/>
			<feBlend mode="normal" in2="BackgroundImageFix" result="effect_dropShadow_1"/>
			<feBlend mode="normal" in="SourceGraphic" in2="effect_dropShadow_1" result="shape"/>
		</filter>
		<clipPath id="clip13_514">
			<rect id="ic_play_arrow_48px" width="23.467611" height="23.467611" transform="translate(144.531738 141.610840)" fill="white" fill-opacity="0"/>
		</clipPath>
		<filter id="filter_13_519_dd" x="127.198364" y="172.278809" width="95.291931" height="50.801270" filterUnits="userSpaceOnUse" color-interpolation-filters="sRGB">
			<feFlood flood-opacity="0" result="BackgroundImageFix"/>
			<feColorMatrix in="SourceAlpha" type="matrix" values="0 0 0 0 0 0 0 0 0 0 0 0 0 0 0 0 0 0 127 0" result="hardAlpha"/>
			<feOffset dx="0" dy="4"/>
			<feGaussianBlur stdDeviation="3.33333"/>
			<feComposite in2="hardAlpha" operator="out" k2="-1" k3="1"/>
			<feColorMatrix type="matrix" values="0 0 0 0 0.43529 0 0 0 0 0.81176 0 0 0 0 0.59216 0 0 0 0.2 0"/>
			<feBlend mode="normal" in2="BackgroundImageFix" result="effect_dropShadow_1"/>
			<feBlend mode="normal" in="SourceGraphic" in2="effect_dropShadow_1" result="shape"/>
		</filter>
		<linearGradient id="paint_linear_13_435_0" x1="183.457016" y1="-33.084839" x2="115.804062" y2="292.115662" gradientUnits="userSpaceOnUse">
			<stop stop-color="#D1ECFF"/>
			<stop offset="1.000000" stop-color="#1070B1"/>
		</linearGradient>
		<linearGradient id="paint_linear_13_473_0" x1="273.474548" y1="107.180038" x2="246.436279" y2="121.070770" gradientUnits="userSpaceOnUse">
			<stop stop-color="#FFF8E1"/>
			<stop offset="1.000000" stop-color="#FFCC80"/>
		</linearGradient>
		<linearGradient id="paint_linear_13_474_0" x1="286.304688" y1="115.327637" x2="286.304688" y2="153.100464" gradientUnits="userSpaceOnUse">
			<stop stop-color="#AF6CED"/>
			<stop offset="1.000000" stop-color="#5E199D"/>
		</linearGradient>
		<linearGradient id="paint_linear_13_475_0" x1="309.649933" y1="144.788818" x2="309.649933" y2="198.568756" gradientUnits="userSpaceOnUse">
			<stop stop-color="#EB5757"/>
			<stop offset="1.000000" stop-color="#872727"/>
		</linearGradient>
		<linearGradient id="paint_linear_13_476_0" x1="281.288055" y1="110.392296" x2="273.485229" y2="116.628952" gradientUnits="userSpaceOnUse">
			<stop stop-color="#FFF8E1"/>
			<stop offset="1.000000" stop-color="#FFCC80"/>
		</linearGradient>
		<linearGradient id="paint_linear_13_478_0" x1="287.428497" y1="139.694427" x2="268.961700" y2="143.096252" gradientUnits="userSpaceOnUse">
			<stop stop-color="#FFF8E1"/>
			<stop offset="1.000000" stop-color="#FFCC80"/>
		</linearGradient>
		<linearGradient id="paint_linear_13_494_0" x1="94.366669" y1="159.287292" x2="243.728271" y2="175.665756" gradientUnits="userSpaceOnUse">
			<stop offset="0.127122" stop-color="#FFFFFF"/>
			<stop offset="0.972261" stop-color="#FFFFFF" stop-opacity="0.800000"/>
		</linearGradient>
	</defs>
	<g opacity="0.400000">
		<path id="Vector" d="M154.379 107.831C203.187 92.6763 234.41 0.570068 305.192 34.2522C367.255 63.7859 325.377 182.352 228.142 232.774C150.533 273.02 75.4474 286.416 33.1956 249.196C3.7323 223.241 -16.4678 161.556 29.5554 126.296C58.5903 104.052 105.613 130.002 154.379 107.831Z" fill="#98C3E8" fill-opacity="1.000000" fill-rule="evenodd"/>
	</g>
	<g opacity="0.200000">
		<path id="Ellipse" d="M69.974 70.9641C72.4185 77.0754 65.0848 86.6091 54.5734 89.7871C45.5286 92.5215 36.7281 92.2317 34.2837 85.8757C32.1211 80.2534 38.9282 74.1421 46.7509 70.9641C54.5734 67.7861 67.5294 64.8528 69.974 70.9641Z" fill="#98C3E8" fill-opacity="1.000000" fill-rule="nonzero"/>
	</g>
	<g opacity="0.200000">
		<path id="Ellipse" d="M149.91 58.4971C148.008 53.6375 154.709 42.2974 163.014 39.8201C170.16 37.6882 176.855 32.6648 178.756 37.7183C180.438 42.1887 175.289 52.2998 169.105 54.7886C162.921 57.2773 151.813 63.3564 149.91 58.4971Z" fill="#98C3E8" fill-opacity="1.000000" fill-rule="nonzero"/>
	</g>
	<g opacity="0.200000">
		<path id="Ellipse" d="M144.431 299.146C142.529 294.286 148.354 286.752 156.659 284.275C163.805 282.143 170.745 282.41 172.647 287.464C174.328 291.934 168.933 296.755 162.749 299.243C156.566 301.732 146.333 304.005 144.431 299.146Z" fill="#98C3E8" fill-opacity="1.000000" fill-rule="nonzero"/>
	</g>
	<g opacity="0.200000">
		<path id="Ellipse" d="M230.371 274.375C226.414 265.071 239.028 244.397 256.284 239.662C271.132 235.588 295.107 243.921 299.063 253.596C302.562 262.155 279.644 260.739 266.796 265.498C253.948 270.256 234.329 283.678 230.371 274.375Z" fill="#98C3E8" fill-opacity="1.000000" fill-rule="nonzero"/>
	</g>
	<mask id="mask13_434" mask-type="alpha" maskUnits="userSpaceOnUse" x="10.046509" y="28.756592" width="315.907532" height="239.398682">
		<path id="Vector" d="M153.891 109.844C200.289 93.9324 227.838 4.65283 296.564 35.002C356.826 61.613 319.748 176.587 227.838 227.705C154.478 268.505 82.844 283.463 41.376 248.92C12.4592 224.832 -8.50183 166.19 34.7062 131.059C61.965 108.896 107.715 132.488 153.891 109.844Z" fill="#98C3E8" fill-opacity="1.000000" fill-rule="evenodd"/>
	</mask>
	<g mask="url(#mask13_434)">
		<rect id="Rectangle" x="-41.782349" y="-10.731689" width="393.650391" height="333.183746" fill="url(#paint_linear_13_435_0)" fill-opacity="1.000000"/>
	</g>
	<g mask="url(#mask13_434)">
		<path id="Vector 2" d="M7.88672 95.3933C43.9816 113.595 84.3955 164.543 84.3955 188.87C84.3955 218.795 20.9467 264.659 -8.15552 290.676L240.19 306.718C231.346 267.127 209.017 179.11 222.605 159.562C240.19 134.265 311.351 140.435 351.251 145.062L362.049 32.4585C342.613 40.5825 299.114 63.9258 275.359 57.7559C253.371 52.0447 211.19 27.4197 193.297 11.7888" stroke="#FFFFFF" stroke-opacity="0.200000" stroke-width="15.000000"/>
	</g>
	<g mask="url(#mask13_434)">
		<path id="Vector 2" d="M100.746 67.6282C110.618 119.045 137.458 213.303 165.841 178.998C201.318 136.116 229.392 80.5852 255.924 117.297C277.149 146.667 308.369 204.604 321.326 229.901" stroke="#FFFFFF" stroke-opacity="0.200000" stroke-width="15.000000"/>
	</g>
	<g mask="url(#mask13_434)">
		<path id="Union" d="M204.179 97.6094C204.179 95.4492 205.93 93.698 208.09 93.698C210.25 93.698 212.002 95.4492 212.002 97.6094C212.002 99.7693 210.25 101.521 208.09 101.521C205.93 101.521 204.179 99.7693 204.179 97.6094ZM269.204 166.545C267.044 166.545 265.293 168.296 265.293 170.456C265.293 172.616 267.044 174.367 269.204 174.367C271.364 174.367 273.115 172.616 273.115 170.456C273.115 168.296 271.364 166.545 269.204 166.545ZM50.1729 174.368C48.0127 174.368 46.2616 176.119 46.2616 178.279C46.2616 180.439 48.0127 182.19 50.1729 182.19C52.333 182.19 54.0841 180.439 54.0841 178.279C54.0841 176.119 52.333 174.368 50.1729 174.368ZM135.243 224.237C133.083 224.237 131.332 225.988 131.332 228.148C131.332 230.308 133.083 232.059 135.243 232.059C137.403 232.059 139.154 230.308 139.154 228.148C139.154 225.988 137.403 224.237 135.243 224.237Z" clip-rule="evenodd" fill="#FFFFFF" fill-opacity="0.600000" fill-rule="evenodd"/>
	</g>
	<g mask="url(#mask13_434)">
		<circle id="Ellipse" cx="35.505615" cy="220.814209" r="6.755989" stroke="#FFFFFF" stroke-opacity="0.400000" stroke-width="8.000000"/>
		<circle id="Ellipse" cx="319.072266" cy="85.386719" r="6.755989" stroke="#FFFFFF" stroke-opacity="0.400000" stroke-width="8.000000"/>
		<circle id="Ellipse" cx="196.845215" cy="199.302490" r="6.755989" stroke="#FFFFFF" stroke-opacity="0.400000" stroke-width="8.000000"/>
	</g>
	<g filter="url(#filter_13_449_dd)">
		<rect id="Rectangle" x="221.290771" y="62.896973" rx="10.000000" width="43.023956" height="43.023956" fill="#FFFFFF" fill-opacity="1.000000"/>
	</g>
	<rect id="ic_home_48px" width="23.467611" height="23.467611" transform="translate(231.068909 72.674805)" fill="#FFFFFF" fill-opacity="0"/>
	<g clip-path="url(#clip13_450)">
		<path id="Vector" d="M240.847 92.2312L240.847 86.3645L244.758 86.3645L244.758 92.2312L249.647 92.2312L249.647 84.4087L252.581 84.4087L242.803 75.6084L233.025 84.4087L235.958 84.4087L235.958 92.2312L240.847 92.2312Z" fill="#5A98D0" fill-opacity="1.000000" fill-rule="nonzero"/>
	</g>
	<g filter="url(#filter_13_455_dd)">
		<path id="Vector" d="M201.731 10L215.142 10C216.992 10 218.493 11.2861 218.493 12.8726L218.493 24.3699C218.493 25.9563 216.992 27.2424 215.142 27.2424L201.731 27.2424C199.88 27.2424 198.38 25.9563 198.38 24.3699L198.38 12.8726C198.38 11.2861 199.88 10 201.731 10Z" fill="#56CCF2" fill-opacity="1.000000" fill-rule="evenodd"/>
	</g>
	<rect id="ic_ac_unit_24px" width="11.733806" height="10.128684" transform="translate(202.712219 13.376465)" fill="#FFFFFF" fill-opacity="0"/>
	<g clip-path="url(#clip13_456)">
		<path id="Vector" d="M213.468 18.0188L211.43 18.0188L213.014 16.6514L212.324 16.052L210.046 18.0188L209.068 18.0188L209.068 17.1746L211.346 15.208L210.652 14.613L209.068 15.9802L209.068 14.2205L208.09 14.2205L208.09 15.9802L206.506 14.613L205.812 15.208L208.09 17.1746L208.09 18.0188L207.112 18.0188L204.834 16.052L204.145 16.6514L205.729 18.0188L203.69 18.0188L203.69 18.8628L205.729 18.8628L204.145 20.2302L204.834 20.8293L207.112 18.8628L208.09 18.8628L208.09 19.7068L205.812 21.6736L206.506 22.2686L208.09 20.9011L208.09 22.6611L209.068 22.6611L209.068 20.9011L210.652 22.2686L211.346 21.6736L209.068 19.7068L209.068 18.8628L210.046 18.8628L212.324 20.8293L213.014 20.2302L211.43 18.8628L213.468 18.8628L213.468 18.0188Z" fill="#FFFFFF" fill-opacity="1.000000" fill-rule="nonzero"/>
	</g>
	<g filter="url(#filter_13_460_dd)">
		<path id="Vector" d="M286.733 53.4688L300.144 53.4688C301.995 53.4688 303.495 54.7549 303.495 56.3413L303.495 67.8386C303.495 69.425 301.995 70.7112 300.144 70.7112L286.733 70.7112C284.882 70.7112 283.382 69.425 283.382 67.8386L283.382 56.3413C283.382 54.7549 284.882 53.4688 286.733 53.4688Z" fill="#F2C94C" fill-opacity="1.000000" fill-rule="evenodd"/>
	</g>
	<path id="Vector" d="M298.05 60.6436C298.05 58.5334 296.094 56.8452 293.649 56.8452C291.205 56.8452 289.249 58.5334 289.249 60.6436C289.249 61.9517 290.031 63.1335 291.205 63.8086L291.205 64.8638C291.205 65.4124 291.596 65.8767 292.183 66.0454L292.183 66.1299C292.183 66.8472 292.818 67.396 293.649 67.396C294.481 67.396 295.116 66.8472 295.116 66.1299L295.116 66.0454C295.703 65.8767 296.094 65.4124 296.094 64.8638L296.094 63.8086C297.267 63.1335 298.05 61.9517 298.05 60.6436ZM290.227 60.6436C290.227 58.9976 291.743 57.6892 293.649 57.6892C295.556 57.6892 297.072 58.9976 297.072 60.6436C297.072 62.1206 295.801 63.3445 294.138 63.5554L294.138 62.5005L294.969 61.783C295.165 61.614 295.165 61.3608 294.969 61.1921C294.774 61.0232 294.481 61.0232 294.285 61.1921L293.649 61.7407L293.014 61.1921C292.818 61.0232 292.525 61.0232 292.329 61.1921C292.134 61.3608 292.134 61.614 292.329 61.783L293.161 62.5005L293.161 63.5554C291.498 63.3445 290.227 62.1206 290.227 60.6436ZM293.649 66.5518C293.356 66.5518 293.161 66.3831 293.161 66.1299L294.138 66.1299C294.138 66.3831 293.943 66.5518 293.649 66.5518ZM295.116 64.8638C295.116 65.1169 294.921 65.2859 294.627 65.2859L292.672 65.2859C292.378 65.2859 292.183 65.1169 292.183 64.8638L292.183 64.2307C292.623 64.3574 293.112 64.4417 293.649 64.4417C294.187 64.4417 294.676 64.3574 295.116 64.2307L295.116 64.8638Z" fill="#FFFFFF" fill-opacity="1.000000" fill-rule="nonzero"/>
	<g filter="url(#filter_13_463_dd)">
		<path id="Vector" d="M179.173 53.4688L192.584 53.4688C194.435 53.4688 195.935 54.7549 195.935 56.3413L195.935 67.8386C195.935 69.425 194.435 70.7112 192.584 70.7112L179.173 70.7112C177.323 70.7112 175.822 69.425 175.822 67.8386L175.822 56.3413C175.822 54.7549 177.323 53.4688 179.173 53.4688Z" fill="#F58A8A" fill-opacity="1.000000" fill-rule="evenodd"/>
	</g>
	<rect id="ic_lock_24px" width="11.733806" height="10.128672" transform="translate(180.222290 56.845215)" fill="#FFFFFF" fill-opacity="0"/>
	<g clip-path="url(#clip13_464)">
		<path id="Vector" d="M189.023 60.2212L188.534 60.2212L188.534 59.3772C188.534 58.2124 187.439 57.2671 186.089 57.2671C184.74 57.2671 183.645 58.2124 183.645 59.3772L183.645 60.2212L183.156 60.2212C182.618 60.2212 182.178 60.6011 182.178 61.0654L182.178 65.2856C182.178 65.7498 182.618 66.1296 183.156 66.1296L189.023 66.1296C189.56 66.1296 190 65.7498 190 65.2856L190 61.0654C190 60.6011 189.56 60.2212 189.023 60.2212ZM186.089 64.0195C185.551 64.0195 185.111 63.6396 185.111 63.1755C185.111 62.7112 185.551 62.3315 186.089 62.3315C186.627 62.3315 187.067 62.7112 187.067 63.1755C187.067 63.6396 186.627 64.0195 186.089 64.0195ZM187.605 60.2212L184.574 60.2212L184.574 59.3772C184.574 58.6555 185.253 58.0688 186.089 58.0688C186.925 58.0688 187.605 58.6555 187.605 59.3772L187.605 60.2212Z" fill="#FFFFFF" fill-opacity="1.000000" fill-rule="nonzero"/>
	</g>
	<g filter="url(#filter_13_468_dd)">
		<path id="Vector" d="M264.243 10L277.655 10C279.505 10 281.005 11.2861 281.005 12.8726L281.005 24.3699C281.005 25.9563 279.505 27.2424 277.655 27.2424L264.243 27.2424C262.393 27.2424 260.893 25.9563 260.893 24.3699L260.893 12.8726C260.893 11.2861 262.393 10 264.243 10Z" fill="#6FCF97" fill-opacity="1.000000" fill-rule="evenodd"/>
	</g>
	<rect id="Frame" width="13.689441" height="11.816789" transform="translate(264.314575 12.532227)" fill="#FFFFFF" fill-opacity="0"/>
	<g clip-path="url(#clip13_469)">
		<path id="Vector" d="M265.771 16.2869L273.756 16.2869L273.756 20.5945L265.771 20.5945L265.771 16.2869Z" fill="#FFFFFF" fill-opacity="1.000000" fill-rule="evenodd"/>
		<path id="Vector" d="M275.908 17.144L274.146 17.7834L274.146 19.116L275.908 19.7554L276.547 19.7554L276.547 17.144L275.908 17.144Z" fill="#FFFFFF" fill-opacity="1.000000" fill-rule="nonzero"/>
	</g>
	<path id="Vector" d="M245.236 107.143C244.654 106.84 243.915 105.61 244.46 103.476C244.833 102.019 246.214 101.032 246.214 101.032C246.214 101.032 247.371 104.229 249.505 105.781C250.475 105.781 252.415 105.781 252.415 105.781L250.863 108.497C250.863 108.497 258.927 117.224 260.757 117.616C263.474 118.198 269.682 119.556 269.682 119.556L266.966 124.988C266.966 124.988 260.757 124.391 258.041 123.242C255.713 122.258 247.681 108.497 247.681 108.497C247.681 108.497 246.391 107.745 245.236 107.143Z" fill="url(#paint_linear_13_473_0)" fill-opacity="1.000000" fill-rule="evenodd"/>
	<path id="Vector 2" d="M266.993 124.988C269.682 125.64 275.304 127.188 276.282 128.166C277.504 129.388 276.771 135.5 277.749 137.455C278.727 139.411 284.838 139.411 286.794 145.033C288.358 149.531 289.564 152.286 289.971 153.1C296.873 151.667 300.363 150.041 305.617 145.033C302.276 137.374 294.469 121.126 289.971 117.41C284.349 112.766 282.638 117.166 277.749 118.388C273.838 119.366 270.741 119.61 269.682 119.61L266.993 124.988Z" fill="url(#paint_linear_13_474_0)" fill-opacity="1.000000" fill-rule="evenodd"/>
	<path id="Vector 3" d="M291.438 152.611C292.09 161.167 292.123 179.746 293.883 183.657C295.643 187.568 310.261 195.228 317.35 198.569L318.817 194.413C314.661 190.257 304.15 181.995 303.172 179.257C302.194 176.519 304.231 167.849 304.639 163.123C305.291 167.604 306.643 175.932 310.75 179.257C314.857 182.582 322.728 188.383 325.417 191.235L327.862 186.591C325.417 182.761 320.773 177.057 318.817 174.368C316.627 171.356 312.95 166.79 313.439 157.745C313.928 148.7 305.616 144.789 305.616 144.789C300.548 149.93 297.4 151.44 291.438 152.611Z" fill="url(#paint_linear_13_475_0)" fill-opacity="1.000000" fill-rule="evenodd"/>
	<path id="Vector 4" d="M273.593 107.632C273.267 108.447 273.544 110.761 273.349 111.543C273.153 112.325 273.104 113.58 272.86 113.988L274.082 113.743L274.815 116.921C275.549 117.003 276.233 117.068 277.993 115.699C278.238 116.188 278.482 117.166 277.993 118.388C278.889 118.114 279.383 117.937 280.194 117.41L278.482 112.765C279.216 112.032 279.46 111.054 279.216 110.565C278.939 110.012 278.238 110.239 277.749 110.321C277.26 109.669 275.94 108.023 273.593 107.632Z" fill="url(#paint_linear_13_476_0)" fill-opacity="1.000000" fill-rule="evenodd"/>
	<path id="Vector 5" d="M273.348 107.632C274.408 107.958 276.771 108.952 277.749 110.321C278.156 110.158 279.02 109.979 279.215 110.565C279.411 111.152 278.808 112.276 278.482 112.765C279.215 114.884 280.829 119.268 281.415 119.854C282.149 120.588 285.571 120.099 287.038 120.832C288.505 121.566 289.727 122.543 290.46 125.232C291.194 127.921 290.46 127.921 294.616 127.921C298.772 127.921 302.683 129.388 302.927 126.455C303.172 123.521 305.861 120.832 302.927 118.877C299.994 116.921 300.238 115.21 300.727 113.743C301.216 112.276 299.994 110.565 297.305 110.565C294.616 110.565 294.86 113.01 290.46 111.054C286.06 109.099 285.571 105.921 284.593 104.943C283.616 103.965 281.66 100.054 277.015 101.521C272.371 102.987 271.393 106.165 273.348 107.632Z" fill="#F2994A" fill-opacity="1.000000" fill-rule="evenodd"/>
	<path id="Vector 6" d="M280.193 139.167L268.46 139.9L267.482 138.189L267.482 141.855L268.46 141.855C272.615 142.589 281.22 144.056 282.393 144.056C283.567 144.056 284.512 142.589 284.838 141.855C283.86 141.041 281.562 139.362 280.193 139.167Z" fill="url(#paint_linear_13_478_0)" fill-opacity="1.000000" fill-rule="evenodd"/>
	<path id="Vector 7" d="M267.482 135.255L267.482 143.567L263.326 143.567L263.326 135.255L267.482 135.255Z" fill="#F2C94C" fill-opacity="1.000000" fill-rule="evenodd"/>
	<path id="Vector 8" d="M331.284 200.036C330.698 199.058 327.129 194.332 325.417 191.235L327.862 186.591C329.003 187.568 329.084 187.568 330.306 189.28C330.875 190.075 332.018 201.258 331.284 200.036ZM325.417 205.414C324.244 205.218 319.469 200.688 317.35 198.569L318.817 194.413C319.795 194.821 321.848 195.538 322.239 196.124C322.728 196.858 326.884 205.658 325.417 205.414Z" fill="#5A98D0" fill-opacity="1.000000" fill-rule="evenodd"/>
	<g opacity="0.200000">
		<path id="Vector 9" d="M304.638 163.368L306.105 156.034C306.839 161.086 305.861 168.012 308.794 177.302C306.35 172.657 304.883 166.057 304.638 163.368Z" fill="#000000" fill-opacity="1.000000" fill-rule="evenodd"/>
	</g>
	<path id="Vector 8" d="M75.8403 242.815L78.0404 246.482C77.8774 249.008 77.3558 253.962 76.5736 253.571C75.7914 253.18 73.3142 246.889 72.1735 243.793L75.8403 242.815ZM95.6411 265.794L94.9077 263.349L98.819 262.616C100.693 263.594 104.295 265.745 103.708 266.527C103.513 266.918 98.2486 266.201 95.6411 265.794Z" fill="#D06262" fill-opacity="1.000000" fill-rule="evenodd"/>
	<path id="Vector 2" d="M63.0448 220.811C60.4393 218.105 58.0717 213.004 57.2135 210.792C59.7206 209.579 65.2919 206.808 67.5212 205.425C69.7507 204.041 73.979 200.903 75.8145 199.507C76.8853 200.472 80.001 202.853 83.8981 204.655C93.9067 209.38 99.6232 215.483 101.599 220.947C103.179 225.319 96.7043 231.79 93.0259 234.501C90.8947 230.879 89.6122 229.414 87.0855 225.964L87.9444 221.958L82.8967 220.458C83.6429 221.453 86.0883 224.73 89.9004 229.879C96.7792 238.476 99.1615 253.167 99.4927 259.437C98.2094 259.719 95.0495 260.238 92.6768 260.064C92.3966 257.018 88.5806 250.252 84.9371 244.262C84.1957 245.149 83.1684 246.209 82.57 246.264C79.5414 245.364 78.6033 241.392 78.5127 239.518L80.8016 237.601C80.488 237.1 80.1943 236.63 79.9257 236.197C76.179 230.159 66.3018 224.194 63.0448 220.811Z" fill="#1F3F68" fill-opacity="1.000000" fill-rule="evenodd"/>
	<path id="Vector" d="M52.9412 209.711C50.4563 204.048 50.9432 204.003 49.5693 202.411C48.1954 200.819 47.8596 197.168 47.2384 195.752C46.9263 195.041 44.4091 191.928 42.397 188.096C42.397 188.096 42.3364 187.986 42.2341 187.783C41.0729 185.517 40.11 183.019 39.8901 180.629C39.8396 180.08 39.8282 179.535 39.863 179.001C40.0049 174.816 43.1874 172.116 43.1895 172.115C45.0872 170.092 46.8673 169.752 47.4839 169.806C48.9678 170.815 51.1708 172.315 51.9497 172.243C52.7288 172.172 53.8397 170.701 54.573 169.968C56.4896 170.171 57.7201 170.016 58.8605 169.873C59.9327 169.739 60.9253 169.614 62.3337 169.806C62.8469 169.876 63.485 170.04 64.2239 170.229C68.6462 171.362 76.681 173.421 83.1743 161.901C83.9269 162.077 85.6239 162.746 86.841 162.634C82.6854 174.857 79.0184 178.661 75.5961 179.859C72.9695 180.778 70.9001 181.034 69.2655 181.018C68.9656 182.613 68.5669 185.233 67.9023 187.906C69.2686 190.407 70.7126 192.705 71.8469 193.734C72.8064 194.605 73.8063 195.349 74.6709 195.993C75.8315 196.856 76.7485 197.539 76.9972 198.104C77.0327 198.184 77.0546 198.263 77.0615 198.339C77.0812 198.552 76.9843 198.748 76.7435 198.93C69.6377 204.412 54.929 214.242 52.9412 209.711Z" fill="#FFFFFF" fill-opacity="1.000000" fill-rule="evenodd"/>
	<path id="Vector 2" d="M59.4459 187.02C57.907 187.301 53.9244 183.927 52.1375 182.291C57.4159 186.139 58.4673 185.321 62.9708 181.816C64.0798 180.953 65.3981 179.927 67.0403 178.768C66.6793 179.292 63.1289 186.346 59.4459 187.02ZM43.2035 189.25C46.5566 192.788 54.998 200.047 61.9393 200.783C68.8806 201.519 69.9592 194.563 69.6309 190.992L67.7737 187.813C66.8541 190.271 65.1038 196.22 62.8206 197.02C59.9667 198.019 50.957 196.147 43.2035 189.25ZM76.604 213.427L83.1628 220.679L87.9446 221.958L87.6592 224.193C88.757 222.783 90.1639 219.397 87.0099 217.134C83.856 214.871 78.7585 213.72 76.604 213.427Z" fill="#000000" fill-opacity="0.200000" fill-rule="evenodd"/>
	<path id="Vector 3" d="M67.0403 178.768C67.9183 179.539 68.6475 179.822 69.4849 179.99L70.2181 178.279L71.6849 177.546L71.9293 175.834L69.9738 174.123L68.7515 175.59L68.996 174.368C68.7515 174.531 67.9692 174.954 67.7737 175.345C67.5781 175.737 67.6921 176.649 67.7737 177.057L67.0403 178.768Z" fill="#F2994A" fill-opacity="1.000000" fill-rule="evenodd"/>
	<path id="Vector 4" d="M86.8409 162.634L87.3298 160.189L87.3298 157.5L88.3076 155.789L87.3298 155.789C86.4335 156.197 84.5919 157.256 84.3964 158.234C84.2008 159.211 83.4185 161.167 83.1741 161.9C83.9889 162.226 86.0587 162.829 86.8409 162.634Z" fill="#F2994A" fill-opacity="1.000000" fill-rule="evenodd"/>
	<path id="Vector 6" d="M48.217 168.012C47.7281 167.279 46.6526 165.617 46.2615 164.834C45.7726 163.857 43.8169 160.434 44.5503 158.968C45.2836 157.501 46.5059 156.034 49.4393 156.034C52.3728 156.034 56.7729 152.856 58.2397 154.078C59.4131 155.056 56.61 158.234 55.0618 159.701L54.8174 158.479L50.6616 158.723C49.6023 158.886 47.5815 159.945 47.9727 162.879C47.386 162.879 46.7504 163.205 46.5059 163.368C46.7504 163.775 47.4348 164.737 48.217 165.323C48.9994 165.91 48.543 167.36 48.217 168.012Z" fill="#316099" fill-opacity="1.000000" fill-rule="evenodd"/>
	<path id="Vector 5" d="M47.4838 169.968C48.869 170.864 51.1017 172.412 51.884 172.412C52.6663 172.412 54.0026 170.701 54.573 169.968L54.3285 167.768C55.0619 167.442 56.382 166.057 55.7953 163.123C55.2085 160.19 54.8989 158.804 54.8174 158.479C53.3507 158.397 50.1239 158.479 48.9506 159.456C47.7771 160.434 47.8097 162.308 47.9727 163.123C47.4838 163.123 46.506 163.221 46.506 163.612C46.506 164.101 47.9727 165.079 48.4617 165.323C48.9506 165.568 48.4617 167.523 48.4617 168.012C48.4617 168.403 48.1356 169.642 47.4838 169.968Z" fill="#F2994A" fill-opacity="1.000000" fill-rule="evenodd"/>
	<path id="Vector 7" d="M78.0404 246.482L80.9739 245.504C79.6644 244 79.2239 243.141 78.7738 241.593L75.8403 242.815L78.0404 246.482ZM98.819 262.616L98.5746 259.682C96.8482 260.145 95.8227 260.227 93.9299 260.171L94.9078 263.349L98.819 262.616Z" fill="#98C3E8" fill-opacity="1.000000" fill-rule="evenodd"/>
	<g opacity="0.800000">
		<rect id="Rectangle" x="91.241028" y="125.476807" rx="5.000000" width="130.188477" height="92.551041" fill="url(#paint_linear_13_494_0)" fill-opacity="1.000000"/>
	</g>
	<path id="Rectangle" d="M96.241 125.477L128.878 125.477L128.878 218.028L96.241 218.028C93.4796 218.028 91.241 215.789 91.241 213.028L91.241 130.477C91.241 127.715 93.4796 125.477 96.241 125.477Z" fill="#FFFFFF" fill-opacity="1.000000" fill-rule="evenodd"/>
	<circle id="Ellipse" cx="97.107971" cy="131.343750" r="1.955634" fill="#FA9595" fill-opacity="1.000000"/>
	<circle id="Ellipse" cx="103.463562" cy="131.343750" r="1.955634" fill="#FDF397" fill-opacity="1.000000"/>
	<circle id="Ellipse" cx="109.330872" cy="131.343750" r="1.955634" fill="#C1FEBB" fill-opacity="1.000000"/>
	<g opacity="0.400000">
		<path id="Union" d="M95.6417 177.301L123.998 177.301L123.998 180.723L95.6417 180.723L95.6417 177.301ZM95.6412 184.146L123.998 184.146L123.998 187.568L95.6412 187.568L95.6412 184.146ZM114.709 191.968L95.6412 191.968L95.6412 195.391L114.709 195.391L114.709 191.968Z" clip-rule="evenodd" fill="#5A98D0" fill-opacity="1.000000" fill-rule="evenodd"/>
	</g>
	<g opacity="0.100000">
		<path id="Union" d="M182.178 137.699L210.535 137.699L210.535 141.122L182.178 141.122L182.178 137.699ZM182.178 144.544L210.535 144.544L210.535 147.967L182.178 147.967L182.178 144.544ZM201.245 152.367L182.178 152.367L182.178 155.789L201.245 155.789L201.245 152.367Z" clip-rule="evenodd" fill="#000000" fill-opacity="1.000000" fill-rule="evenodd"/>
	</g>
	<g filter="url(#filter_13_509_dd)">
		<rect id="Rectangle" x="87.329834" y="138.188477" rx="5.000000" width="39.601597" height="24.445429" fill="#56CCF2" fill-opacity="1.000000"/>
	</g>
	<path id="afrian" d="M101.664 167.167Q101.539 166.924 101.446 166.377Q100.539 167.323 99.2269 167.323Q97.9535 167.323 97.1488 166.596Q96.3441 165.87 96.3441 164.799Q96.3441 163.448 97.348 162.725Q98.3519 162.002 100.219 162.002L101.383 162.002L101.383 161.448Q101.383 160.792 101.016 160.397Q100.649 160.002 99.8988 160.002Q99.2504 160.002 98.8363 160.327Q98.4222 160.651 98.4222 161.151L96.5238 161.151Q96.5238 160.456 96.9847 159.85Q97.4457 159.245 98.2386 158.901Q99.0316 158.557 100.008 158.557Q101.493 158.557 102.375 159.303Q103.258 160.049 103.282 161.401L103.282 165.213Q103.282 166.354 103.602 167.034L103.602 167.167L101.664 167.167ZM99.5785 165.799Q100.141 165.799 100.637 165.526Q101.133 165.252 101.383 164.792L101.383 163.198L100.36 163.198Q99.3051 163.198 98.7738 163.565Q98.2426 163.932 98.2426 164.604Q98.2426 165.151 98.6058 165.475Q98.9691 165.799 99.5785 165.799ZM106.738 167.167L106.738 160.12L105.449 160.12L105.449 158.713L106.738 158.713L106.738 157.94Q106.738 156.534 107.519 155.768Q108.3 155.002 109.707 155.002Q110.207 155.002 110.769 155.143L110.722 156.627Q110.41 156.565 109.996 156.565Q108.636 156.565 108.636 157.963L108.636 158.713L110.355 158.713L110.355 160.12L108.636 160.12L108.636 167.167L106.738 167.167ZM116.968 160.448Q116.593 160.385 116.194 160.385Q114.889 160.385 114.436 161.385L114.436 167.167L112.538 167.167L112.538 158.713L114.35 158.713L114.397 159.659Q115.085 158.557 116.303 158.557Q116.71 158.557 116.975 158.667L116.968 160.448ZM98.6332 213.167L96.7347 213.167L96.7347 204.713L98.6332 204.713L98.6332 213.167ZM96.6176 202.518Q96.6176 202.081 96.8949 201.792Q97.1722 201.502 97.6879 201.502Q98.2035 201.502 98.4847 201.792Q98.766 202.081 98.766 202.518Q98.766 202.948 98.4847 203.233Q98.2035 203.518 97.6879 203.518Q97.1722 203.518 96.8949 203.233Q96.6176 202.948 96.6176 202.518ZM106.55 213.167Q106.425 212.924 106.332 212.377Q105.425 213.323 104.113 213.323Q102.839 213.323 102.035 212.596Q101.23 211.87 101.23 210.799Q101.23 209.448 102.234 208.725Q103.238 208.002 105.105 208.002L106.269 208.002L106.269 207.448Q106.269 206.792 105.902 206.397Q105.535 206.002 104.785 206.002Q104.136 206.002 103.722 206.327Q103.308 206.651 103.308 207.151L101.41 207.151Q101.41 206.456 101.871 205.85Q102.332 205.245 103.125 204.901Q103.918 204.557 104.894 204.557Q106.378 204.557 107.261 205.303Q108.144 206.049 108.168 207.401L108.168 211.213Q108.168 212.354 108.488 213.034L108.488 213.167L106.55 213.167ZM104.464 211.799Q105.027 211.799 105.523 211.526Q106.019 211.252 106.269 210.792L106.269 209.198L105.246 209.198Q104.191 209.198 103.66 209.565Q103.128 209.932 103.128 210.604Q103.128 211.151 103.492 211.475Q103.855 211.799 104.464 211.799ZM112.718 204.713L112.772 205.69Q113.71 204.557 115.233 204.557Q117.874 204.557 117.921 207.581L117.921 213.167L116.022 213.167L116.022 207.69Q116.022 206.885 115.675 206.499Q115.327 206.112 114.538 206.112Q113.389 206.112 112.827 207.151L112.827 213.167L110.928 213.167L110.928 204.713L112.718 204.713Z" fill="#FFFFFF" fill-opacity="1.000000" fill-rule="evenodd"/>
	<rect id="Rectangle" x="137.198364" y="134.277344" rx="5.000000" width="38.623779" height="37.645962" fill="#EB5757" fill-opacity="1.000000"/>
	<rect id="ic_play_arrow_48px" width="23.467611" height="23.467611" transform="translate(144.531738 141.610840)" fill="#FFFFFF" fill-opacity="0"/>
	<g clip-path="url(#clip13_514)">
		<path id="Vector" d="M152.354 146.5L152.354 160.189L163.11 153.344L152.354 146.5Z" fill="#FFFFFF" fill-opacity="1.000000" fill-rule="nonzero"/>
	</g>
	<g filter="url(#filter_13_519_dd)">
		<rect id="Rectangle" x="137.198364" y="178.278809" rx="5.000000" width="75.291924" height="30.801241" fill="#6FCF97" fill-opacity="1.000000"/>
	</g>
	<path id="Vector 4.1" d="M143.799 200.28C148.443 197.102 150.399 192.946 159.199 192.946C168 192.946 168.772 197.835 174.111 197.835C180.467 197.835 186.578 188.302 193.423 188.302C200.268 188.302 201.979 193.191 205.646 193.435" stroke="#000000" stroke-opacity="0.100000" stroke-width="2.000000" stroke-linejoin="round" stroke-linecap="round"/>
	<path id="Vector 4" d="M143.554 200.524C148.199 197.346 149.421 188.057 158.222 188.057C167.022 188.057 169.017 196.124 174.356 196.124C180.711 196.124 186.334 182.924 193.179 182.924C200.023 182.924 202.223 193.191 205.89 193.435" stroke="#FFFFFF" stroke-opacity="1.000000" stroke-width="2.000000" stroke-linejoin="round" stroke-linecap="round"/>
</svg>
