<svg width="241.161865" height="165.158081" viewBox="0 0 241.162 165.158" fill="none" xmlns="http://www.w3.org/2000/svg" xmlns:xlink="http://www.w3.org/1999/xlink">
	<desc>
			Created with Pixso.
	</desc>
	<defs>
		<filter id="filter_1_1103_dd" x="38.756592" y="0.000000" width="68.756348" height="67.356323" filterUnits="userSpaceOnUse" color-interpolation-filters="sRGB">
			<feFlood flood-opacity="0" result="BackgroundImageFix"/>
			<feColorMatrix in="SourceAlpha" type="matrix" values="0 0 0 0 0 0 0 0 0 0 0 0 0 0 0 0 0 0 127 0" result="hardAlpha"/>
			<feOffset dx="5" dy="5"/>
			<feGaussianBlur stdDeviation="5"/>
			<feComposite in2="hardAlpha" operator="out" k2="-1" k3="1"/>
			<feColorMatrix type="matrix" values="0 0 0 0 0 0 0 0 0 0 0 0 0 0 0 0 0 0 0.15 0"/>
			<feBlend mode="normal" in2="BackgroundImageFix" result="effect_dropShadow_1"/>
			<feBlend mode="normal" in="SourceGraphic" in2="effect_dropShadow_1" result="shape"/>
		</filter>
		<clipPath id="clip1_1104">
			<rect id="ic_ac_unit_24px" width="22.610523" height="21.944138" transform="translate(57.105225 17.314697)" fill="white" fill-opacity="0"/>
		</clipPath>
		<filter id="filter_1_1108_dd" x="172.405273" y="88.176880" width="68.756592" height="67.356323" filterUnits="userSpaceOnUse" color-interpolation-filters="sRGB">
			<feFlood flood-opacity="0" result="BackgroundImageFix"/>
			<feColorMatrix in="SourceAlpha" type="matrix" values="0 0 0 0 0 0 0 0 0 0 0 0 0 0 0 0 0 0 127 0" result="hardAlpha"/>
			<feOffset dx="5" dy="5"/>
			<feGaussianBlur stdDeviation="5"/>
			<feComposite in2="hardAlpha" operator="out" k2="-1" k3="1"/>
			<feColorMatrix type="matrix" values="0 0 0 0 0 0 0 0 0 0 0 0 0 0 0 0 0 0 0.15 0"/>
			<feBlend mode="normal" in2="BackgroundImageFix" result="effect_dropShadow_1"/>
			<feBlend mode="normal" in="SourceGraphic" in2="effect_dropShadow_1" result="shape"/>
		</filter>
		<filter id="filter_1_1111_dd" x="0.000000" y="88.176880" width="68.756348" height="67.356323" filterUnits="userSpaceOnUse" color-interpolation-filters="sRGB">
			<feFlood flood-opacity="0" result="BackgroundImageFix"/>
			<feColorMatrix in="SourceAlpha" type="matrix" values="0 0 0 0 0 0 0 0 0 0 0 0 0 0 0 0 0 0 127 0" result="hardAlpha"/>
			<feOffset dx="5" dy="5"/>
			<feGaussianBlur stdDeviation="5"/>
			<feComposite in2="hardAlpha" operator="out" k2="-1" k3="1"/>
			<feColorMatrix type="matrix" values="0 0 0 0 0 0 0 0 0 0 0 0 0 0 0 0 0 0 0.15 0"/>
			<feBlend mode="normal" in2="BackgroundImageFix" result="effect_dropShadow_1"/>
			<feBlend mode="normal" in="SourceGraphic" in2="effect_dropShadow_1" result="shape"/>
		</filter>
		<clipPath id="clip1_1112">
			<rect id="ic_lock_24px" width="22.610527" height="21.944138" transform="translate(18.478760 106.405884)" fill="white" fill-opacity="0"/>
		</clipPath>
		<filter id="filter_1_1116_dd" x="130.010498" y="0.000000" width="68.756348" height="67.356323" filterUnits="userSpaceOnUse" color-interpolation-filters="sRGB">
			<feFlood flood-opacity="0" result="BackgroundImageFix"/>
			<feColorMatrix in="SourceAlpha" type="matrix" values="0 0 0 0 0 0 0 0 0 0 0 0 0 0 0 0 0 0 127 0" result="hardAlpha"/>
			<feOffset dx="5" dy="5"/>
			<feGaussianBlur stdDeviation="5"/>
			<feComposite in2="hardAlpha" operator="out" k2="-1" k3="1"/>
			<feColorMatrix type="matrix" values="0 0 0 0 0 0 0 0 0 0 0 0 0 0 0 0 0 0 0.15 0"/>
			<feBlend mode="normal" in2="BackgroundImageFix" result="effect_dropShadow_1"/>
			<feBlend mode="normal" in="SourceGraphic" in2="effect_dropShadow_1" result="shape"/>
		</filter>
		<clipPath id="clip1_1117">
			<rect id="Frame" width="26.378952" height="25.601490" transform="translate(146.605225 15.486084)" fill="white" fill-opacity="0"/>
		</clipPath>
		<linearGradient id="paint_linear_1_1087_0" x1="115.772964" y1="46.137436" x2="113.630447" y2="165.193451" gradientUnits="userSpaceOnUse">
			<stop stop-color="#FFFFFF" stop-opacity="0.000000"/>
			<stop offset="1.000000" stop-color="#64B5F6" stop-opacity="0.600000"/>
		</linearGradient>
		<linearGradient id="paint_linear_1_1088_0" x1="127.206886" y1="100.357986" x2="144.485138" y2="129.622589" gradientUnits="userSpaceOnUse">
			<stop stop-color="#E57373"/>
			<stop offset="1.000000" stop-color="#AD1457"/>
		</linearGradient>
		<linearGradient id="paint_linear_1_1089_0" x1="26512.533203" y1="36361.503906" x2="25184.857422" y2="45141.554688" gradientUnits="userSpaceOnUse">
			<stop stop-color="#E57373"/>
			<stop offset="1.000000" stop-color="#AD1457"/>
		</linearGradient>
		<linearGradient id="paint_linear_1_1090_0" x1="190.998886" y1="111.123672" x2="144.171173" y2="137.271713" gradientUnits="userSpaceOnUse">
			<stop stop-color="#FFF8E1"/>
			<stop offset="1.000000" stop-color="#FFCC80"/>
		</linearGradient>
		<linearGradient id="paint_linear_1_1092_0" x1="20399.437500" y1="20383.552734" x2="17376.197266" y2="19450.574219" gradientUnits="userSpaceOnUse">
			<stop stop-color="#FFF8E1"/>
			<stop offset="1.000000" stop-color="#FFCC80"/>
		</linearGradient>
		<linearGradient id="paint_linear_1_1093_0" x1="131.252258" y1="79.578117" x2="108.897652" y2="97.137146" gradientUnits="userSpaceOnUse">
			<stop stop-color="#FFF8E1"/>
			<stop offset="1.000000" stop-color="#FFCC80"/>
		</linearGradient>
		<linearGradient id="paint_linear_1_1094_0" x1="125.394440" y1="52.794857" x2="95.516373" y2="91.707153" gradientUnits="userSpaceOnUse">
			<stop stop-color="#FFB74D"/>
			<stop offset="1.000000" stop-color="#F4511E"/>
		</linearGradient>
	</defs>
	<path id="Vector" d="M178.186 99.99C178.194 108.386 176.381 116.692 172.865 124.374C169.349 132.056 164.206 138.945 157.767 144.6C155.975 146.174 154.092 147.649 152.126 149.016C149.603 150.77 146.947 152.34 144.181 153.712L144.152 153.712C143.562 154.01 142.963 154.294 142.359 154.569C142.083 154.699 141.812 154.82 141.532 154.941C139.783 155.715 137.988 156.409 136.148 157.024C134.698 157.49 133.21 157.955 131.707 158.337C123.036 160.56 113.973 160.972 105.125 159.544C104.076 159.376 103.042 159.185 102.012 158.966L101.142 158.775C98.5161 158.184 95.9329 157.428 93.4092 156.511C91.9431 155.98 90.5061 155.398 89.0981 154.764C88.552 154.517 88.0059 154.266 87.4695 154.005C87.1021 153.828 86.7395 153.646 86.3772 153.465C76.5432 148.487 68.2585 141.079 62.3716 132C56.4844 122.921 53.2065 112.498 52.8733 101.796C52.5403 91.0946 55.1641 80.5 60.4758 71.0973C65.7876 61.6946 73.5964 53.8215 83.1033 48.2843C92.6099 42.7472 103.472 39.7449 114.579 39.5847C125.685 39.4247 136.636 42.1127 146.31 47.3734C155.984 52.6342 164.034 60.2786 169.635 69.524C175.236 78.7695 178.187 89.2837 178.186 99.99Z" fill="url(#paint_linear_1_1087_0)" fill-opacity="1.000000" fill-rule="nonzero"/>
	<path id="Vector" d="M131.938 104.36C135.931 108.319 147.559 123.73 147.559 123.73L140.416 133.824L133.992 113.77L131.938 104.36Z" fill="url(#paint_linear_1_1088_0)" fill-opacity="1.000000" fill-rule="nonzero"/>
	<path id="Vector" d="M144.152 153.744C143.562 154.042 142.963 154.326 142.359 154.601C142.083 154.732 141.812 154.853 141.532 154.974C139.783 155.747 137.988 156.441 136.148 157.056C134.698 157.522 133.21 157.988 131.707 158.37C123.036 160.593 113.973 161.004 105.125 159.577C104.076 159.409 103.042 159.218 102.012 158.999C98.2424 161.505 94.7625 163.625 92.457 164.589L92.6455 163.038L93.4285 156.548L95.241 141.45L102.423 134.756L86.2756 135.963C86.2756 135.963 87.9719 113.276 94.5933 108.608C101.215 103.94 108.16 99.757 108.16 99.757C108.988 100.284 109.901 100.675 110.862 100.917C113.158 101.529 115.545 101.763 117.923 101.611C120.755 101.485 123.587 98.9464 123.722 98.8159C123.722 98.8159 128.169 99.6685 131.938 104.378C133.819 106.803 135.169 109.57 135.906 112.512C136.834 115.954 138.482 123.995 140.358 133.708C141.585 139.96 142.876 146.891 144.152 153.744Z" fill="url(#paint_linear_1_1089_0)" fill-opacity="1.000000" fill-rule="nonzero"/>
	<path id="Vector" d="M147.559 123.748L154.451 131.532L178.689 108.343L179.607 103.596L184.44 99.5474L182.29 105.72L182.29 113.76C182.29 113.76 163.595 142.969 158.443 144.474C152.417 146.239 140.426 133.815 140.426 133.815L147.559 123.748Z" fill="url(#paint_linear_1_1090_0)" fill-opacity="1.000000" fill-rule="nonzero"/>
	<path id="Vector" d="M122.398 134.393L128.019 147.437L135.283 144.427L129.957 131.663L122.398 134.393Z" fill="#7E57C2" fill-opacity="1.000000" fill-rule="nonzero"/>
	<path id="Vector" d="M130.228 142.82C129.324 143.537 127.976 143.37 126.303 143.453C124.057 143.51 121.902 144.325 120.214 145.755C117.966 147.576 111.683 152.342 105.4 156.693C104.26 157.48 103.119 158.258 102.017 159.022C98.2473 161.528 94.7673 163.648 92.4622 164.612C91.856 164.902 91.2014 165.087 90.5288 165.157C87.3003 165.237 86.6091 158.715 86.4111 153.511C86.3481 151.783 86.3337 150.204 86.2998 149.062C86.1646 144.497 86.2998 136.019 86.2998 136.019L102.447 134.807L100.736 145.587L100.437 147.492L100.437 147.506L105.27 145.783L105.419 145.731L122.577 139.587L123.761 137.616L124.515 139.48L124.588 139.48L131.934 138.548C131.934 138.548 132.06 141.371 130.228 142.82Z" fill="url(#paint_linear_1_1092_0)" fill-opacity="1.000000" fill-rule="nonzero"/>
	<path id="Vector" d="M126.521 74.8341C126.1 73.7255 125.738 72.9708 125.631 72.7472L125.631 72.6913C125.631 72.6913 125.259 73.5764 122.456 73.3621C119.653 73.1478 118.725 71.8062 118.725 71.8062C118.725 71.8062 119.604 74.713 116.265 75.9569C113.051 77.1587 111.785 76.3807 111.698 76.3248C111.867 76.502 114.38 79.092 112.713 81.1464C110.987 83.2753 107.106 82.8561 107.106 82.8561L107.106 82.884C107.595 83.9502 108.142 84.9905 108.745 86.0005C109.064 86.5316 109.378 87.0208 109.711 87.4773L109.711 87.5099C110.567 88.8521 111.723 89.993 113.094 90.85C112.492 94.2592 110.76 97.3887 108.16 99.771C109.035 100.211 109.937 100.598 110.862 100.931C112.664 101.588 115.086 102.24 117.246 102.058C119.749 101.8 122.062 100.651 123.732 98.8347L122.625 94.7399L121.63 91.0503C130.629 88.8375 128.154 79.2131 126.521 74.8341ZM121.127 91.1854L121.286 91.1482L121.543 91.0782C121.17 91.2338 120.776 91.3373 120.373 91.3857C120.581 91.3345 120.793 91.2786 121.016 91.2134L121.127 91.1854Z" fill="url(#paint_linear_1_1093_0)" fill-opacity="1.000000" fill-rule="nonzero"/>
	<path id="Vector" d="M131.938 72.5701C128.227 75.859 126.622 74.932 126.521 74.8434L126.521 74.8341C126.1 73.7255 125.738 72.9707 125.636 72.7471L125.612 72.6913C125.612 72.6913 125.235 73.5763 122.432 73.3621C119.629 73.1477 118.706 71.8062 118.706 71.8062C118.706 71.8062 119.585 74.713 116.245 75.9568C113.027 77.1587 111.76 76.3807 111.678 76.3248C111.847 76.4972 114.361 79.0873 112.693 81.1417C110.968 83.2706 107.087 82.8561 107.087 82.8561L107.087 82.8794C107.575 83.947 108.122 84.9889 108.725 86.0005C109.047 86.5284 109.37 87.0208 109.692 87.4773L109.692 87.5099C109.692 87.5099 108.367 90.0208 106.004 89.9695C103.641 89.9183 103.588 87.6403 103.588 87.6403C103.588 87.6403 101.915 90.5471 96.7488 87.7474C91.5823 84.9476 95.0283 80.8901 95.0283 80.8901C95.0283 80.8901 91.3647 78.1882 91.3647 74.14C91.3647 70.0918 97.0679 67.0126 97.0679 67.0126C97.0679 67.0126 95.0283 62.3121 98.4695 59.722C101.91 57.132 107.082 58.8882 107.082 58.8882C107.082 58.8882 106.98 52.874 112.249 52.9719C117.517 53.0697 118.71 56.1769 118.71 56.1769C118.71 56.1769 123.447 52.6458 128.135 55.9719C132.823 59.2981 130.895 65.0979 130.895 65.0979C130.895 65.0979 135.81 69.1461 131.938 72.5701Z" fill="url(#paint_linear_1_1094_0)" fill-opacity="1.000000" fill-rule="nonzero"/>
	<g opacity="0.150000">
		<path id="Vector" d="M122.664 94.7258C120.417 94.041 116.42 91.4276 116.42 91.4276C117.997 91.5883 119.591 91.5065 121.142 91.1853L121.301 91.1481L121.61 91.0596L121.654 91.0596L122.664 94.7258Z" fill="#000000" fill-opacity="1.000000" fill-rule="nonzero"/>
	</g>
	<g opacity="0.150000">
		<path id="Vector" d="M104.603 120.823L102.423 134.798L100.712 145.578L96.7295 148.769L105.395 145.736C105.395 145.736 103.148 139.55 104.603 120.823Z" fill="#000000" fill-opacity="1.000000" fill-rule="nonzero"/>
	</g>
	<g opacity="0.150000">
		<path id="Vector" d="M102.002 158.999C103.032 159.218 104.066 159.409 105.115 159.577C105.168 158.621 105.265 157.657 105.4 156.693L102.002 158.999Z" fill="#000000" fill-opacity="1.000000" fill-rule="nonzero"/>
	</g>
	<g filter="url(#filter_1_1103_dd)">
		<path id="Vector" d="M55.2136 10L81.0562 10C84.6221 10 87.5129 12.7865 87.5129 16.2238L87.5129 41.1326C87.5129 44.5699 84.6221 47.3563 81.0562 47.3563L55.2136 47.3563C51.6475 47.3563 48.7566 44.5699 48.7566 41.1326L48.7566 16.2238C48.7566 12.7865 51.6475 10 55.2136 10Z" fill="#56CCF2" fill-opacity="1.000000" fill-rule="evenodd"/>
	</g>
	<rect id="ic_ac_unit_24px" width="22.610523" height="21.944138" transform="translate(57.105225 17.314697)" fill="#FFFFFF" fill-opacity="0"/>
	<g clip-path="url(#clip1_1104)">
		<path id="Vector" d="M77.8315 27.3723L73.9031 27.3723L76.9556 24.4099L75.6272 23.1116L71.2368 27.3723L69.3525 27.3723L69.3525 25.5437L73.7429 21.2828L72.405 19.9937L69.3525 22.9561L69.3525 19.1433L67.4685 19.1433L67.4685 22.9561L64.416 19.9937L63.0781 21.2828L67.4685 25.5437L67.4685 27.3723L65.5842 27.3723L61.1941 23.1116L59.8657 24.4099L62.918 27.3723L58.9895 27.3723L58.9895 29.201L62.918 29.201L59.8657 32.1635L61.1941 33.4619L65.5842 29.201L67.4685 29.201L67.4685 31.0297L63.0781 35.2905L64.416 36.5797L67.4685 33.6173L67.4685 37.4301L69.3525 37.4301L69.3525 33.6173L72.405 36.5797L73.7429 35.2905L69.3525 31.0297L69.3525 29.201L71.2368 29.201L75.6272 33.4619L76.9556 32.1635L73.9031 29.201L77.8315 29.201L77.8315 27.3723Z" fill="#FFFFFF" fill-opacity="1.000000" fill-rule="nonzero"/>
	</g>
	<g filter="url(#filter_1_1108_dd)">
		<path id="Vector" d="M188.862 98.1769L214.705 98.1769C218.271 98.1769 221.162 100.963 221.162 104.401L221.162 129.309C221.162 132.747 218.271 135.533 214.705 135.533L188.862 135.533C185.296 135.533 182.405 132.747 182.405 129.309L182.405 104.401C182.405 100.963 185.296 98.1769 188.862 98.1769Z" fill="#F2C94C" fill-opacity="1.000000" fill-rule="evenodd"/>
	</g>
	<path id="Vector" d="M210.668 113.721C210.668 109.149 206.9 105.492 202.189 105.492C197.479 105.492 193.71 109.149 193.71 113.721C193.71 116.555 195.218 119.115 197.479 120.578L197.479 122.864C197.479 124.053 198.233 125.058 199.363 125.424L199.363 125.607C199.363 127.161 200.588 128.35 202.189 128.35C203.791 128.35 205.016 127.161 205.016 125.607L205.016 125.424C206.146 125.058 206.9 124.053 206.9 122.864L206.9 120.578C209.161 119.115 210.668 116.555 210.668 113.721ZM195.595 113.721C195.595 110.155 198.515 107.32 202.189 107.32C205.864 107.32 208.784 110.155 208.784 113.721C208.784 116.921 206.335 119.572 203.132 120.03L203.132 117.744L204.733 116.189C205.11 115.824 205.11 115.275 204.733 114.909C204.356 114.544 203.791 114.544 203.414 114.909L202.189 116.098L200.965 114.909C200.588 114.544 200.022 114.544 199.646 114.909C199.269 115.275 199.269 115.824 199.646 116.189L201.247 117.744L201.247 120.03C198.044 119.572 195.595 116.921 195.595 113.721ZM202.189 126.521C201.624 126.521 201.247 126.156 201.247 125.607L203.132 125.607C203.132 126.156 202.755 126.521 202.189 126.521ZM205.016 122.864C205.016 123.413 204.639 123.778 204.073 123.778L200.305 123.778C199.74 123.778 199.363 123.413 199.363 122.864L199.363 121.493C200.211 121.767 201.153 121.95 202.189 121.95C203.226 121.95 204.168 121.767 205.016 121.493L205.016 122.864Z" fill="#FFFFFF" fill-opacity="1.000000" fill-rule="nonzero"/>
	<g filter="url(#filter_1_1111_dd)">
		<path id="Vector" d="M16.457 98.1769L42.2996 98.1769C45.8655 98.1769 48.7563 100.963 48.7563 104.401L48.7563 129.309C48.7563 132.747 45.8655 135.533 42.2996 135.533L16.457 135.533C12.8909 135.533 10 132.747 10 129.309L10 104.401C10 100.963 12.8909 98.1769 16.457 98.1769Z" fill="#F58A8A" fill-opacity="1.000000" fill-rule="evenodd"/>
	</g>
	<rect id="ic_lock_24px" width="22.610527" height="21.944138" transform="translate(18.478760 106.405884)" fill="#FFFFFF" fill-opacity="0"/>
	<g clip-path="url(#clip1_1112)">
		<path id="Vector" d="M35.4368 113.721L34.4946 113.721L34.4946 111.892C34.4946 109.368 32.3843 107.32 29.7842 107.32C27.1838 107.32 25.0737 109.368 25.0737 111.892L25.0737 113.721L24.1316 113.721C23.0952 113.721 22.2473 114.544 22.2473 115.549L22.2473 124.693C22.2473 125.698 23.0952 126.521 24.1316 126.521L35.4368 126.521C36.4731 126.521 37.321 125.698 37.321 124.693L37.321 115.549C37.321 114.544 36.4731 113.721 35.4368 113.721ZM29.7842 121.95C28.7478 121.95 27.8999 121.127 27.8999 120.121C27.8999 119.115 28.7478 118.292 29.7842 118.292C30.8206 118.292 31.6685 119.115 31.6685 120.121C31.6685 121.127 30.8206 121.95 29.7842 121.95ZM32.7046 113.721L26.8635 113.721L26.8635 111.892C26.8635 110.328 28.1731 109.058 29.7842 109.058C31.3953 109.058 32.7046 110.328 32.7046 111.892L32.7046 113.721Z" fill="#FFFFFF" fill-opacity="1.000000" fill-rule="nonzero"/>
	</g>
	<g filter="url(#filter_1_1116_dd)">
		<path id="Vector" d="M146.468 10L172.31 10C175.876 10 178.767 12.7865 178.767 16.2238L178.767 41.1326C178.767 44.5699 175.876 47.3563 172.31 47.3563L146.468 47.3563C142.901 47.3563 140.01 44.5699 140.01 41.1326L140.01 16.2238C140.01 12.7865 142.901 10 146.468 10Z" fill="#6FCF97" fill-opacity="1.000000" fill-rule="evenodd"/>
	</g>
	<rect id="Frame" width="26.378952" height="25.601490" transform="translate(146.605225 15.486084)" fill="#FFFFFF" fill-opacity="0"/>
	<g clip-path="url(#clip1_1117)">
		<path id="Vector" d="M149.412 23.6204L164.798 23.6204L164.798 32.9529L149.412 32.9529L149.412 23.6204Z" fill="#FFFFFF" fill-opacity="1.000000" fill-rule="evenodd"/>
		<path id="Vector" d="M168.945 25.4775L165.549 26.8628L165.549 29.7499L168.945 31.1353L170.177 31.1353L170.177 25.4775L168.945 25.4775Z" fill="#FFFFFF" fill-opacity="1.000000" fill-rule="nonzero"/>
	</g>
</svg>
