<svg width="181.942139" height="120.719849" viewBox="0 0 181.942 120.72" fill="none" xmlns="http://www.w3.org/2000/svg" xmlns:xlink="http://www.w3.org/1999/xlink">
	<desc>
			Created with Pixso.
	</desc>
	<defs>
		<filter id="filter_1_1137_dd" x="0.000000" y="17.741943" width="87.314209" height="80.983521" filterUnits="userSpaceOnUse" color-interpolation-filters="sRGB">
			<feFlood flood-opacity="0" result="BackgroundImageFix"/>
			<feColorMatrix in="SourceAlpha" type="matrix" values="0 0 0 0 0 0 0 0 0 0 0 0 0 0 0 0 0 0 127 0" result="hardAlpha"/>
			<feOffset dx="0" dy="4"/>
			<feGaussianBlur stdDeviation="3.33333"/>
			<feComposite in2="hardAlpha" operator="out" k2="-1" k3="1"/>
			<feColorMatrix type="matrix" values="0 0 0 0 0 0 0 0 0 0 0 0 0 0 0 0 0 0 0.15 0"/>
			<feBlend mode="normal" in2="BackgroundImageFix" result="effect_dropShadow_1"/>
			<feBlend mode="normal" in="SourceGraphic" in2="effect_dropShadow_1" result="shape"/>
		</filter>
		<linearGradient id="paint_linear_1_1131_0" x1="120.334053" y1="6.555138" x2="118.219124" y2="125.533188" gradientUnits="userSpaceOnUse">
			<stop stop-color="#FFFFFF" stop-opacity="0.000000"/>
			<stop offset="1.000000" stop-color="#64B5F6" stop-opacity="0.600000"/>
		</linearGradient>
		<linearGradient id="paint_linear_1_1132_0" x1="100.913025" y1="62.380306" x2="97.335205" y2="94.617767" gradientUnits="userSpaceOnUse">
			<stop stop-color="#42A5F5"/>
			<stop offset="1.000000" stop-color="#1565C0"/>
		</linearGradient>
		<linearGradient id="paint_linear_1_1133_0" x1="59.630543" y1="96.321609" x2="99.224342" y2="101.442368" gradientUnits="userSpaceOnUse">
			<stop stop-color="#FFE082"/>
			<stop offset="1.000000" stop-color="#FFA726"/>
		</linearGradient>
		<linearGradient id="paint_linear_1_1134_0" x1="8899.801758" y1="2327.094482" x2="8902.665039" y2="2117.791016" gradientUnits="userSpaceOnUse">
			<stop stop-color="#FFE082"/>
			<stop offset="1.000000" stop-color="#FFA726"/>
		</linearGradient>
		<linearGradient id="paint_linear_1_1135_0" x1="14159.657227" y1="3727.504883" x2="14908.946289" y2="3727.504883" gradientUnits="userSpaceOnUse">
			<stop stop-color="#FFE082"/>
			<stop offset="1.000000" stop-color="#FFA726"/>
		</linearGradient>
		<linearGradient id="paint_linear_1_1156_0" x1="40575.718750" y1="13812.876953" x2="45720.636719" y2="19429.523438" gradientUnits="userSpaceOnUse">
			<stop stop-color="#42A5F5"/>
			<stop offset="1.000000" stop-color="#1565C0"/>
		</linearGradient>
		<linearGradient id="paint_linear_1_1157_0" x1="21739.285156" y1="11217.607422" x2="21549.087891" y2="8884.645508" gradientUnits="userSpaceOnUse">
			<stop stop-color="#FFE082"/>
			<stop offset="1.000000" stop-color="#FFA726"/>
		</linearGradient>
	</defs>
	<rect id="1" width="171.942093" height="120.719475" transform="translate(10.000000 0.000244)" fill="#FFFFFF" fill-opacity="0"/>
	<path id="Vector" d="M181.937 60.36C181.931 71.4526 178.796 82.3296 172.875 91.7988C166.955 101.268 158.478 108.964 148.373 114.044C147.781 114.347 147.18 114.635 146.575 114.915C146.303 115.045 146.036 115.166 145.759 115.287C144.032 116.06 142.261 116.753 140.445 117.368C139.014 117.857 137.544 118.299 136.061 118.681C122.049 122.322 107.172 121.059 94.0151 115.11C93.4761 114.863 92.937 114.612 92.4075 114.351C82.5566 109.543 74.2004 102.255 68.2017 93.24C62.2031 84.2253 58.7798 73.8112 58.2854 63.0734C57.7913 52.3356 60.2439 41.6638 65.3901 32.1605C70.5361 22.6573 78.1892 14.6674 87.5586 9.01624C96.9277 3.36511 107.673 0.257812 118.685 0.0153809C129.696 -0.227051 140.574 2.40405 150.195 7.63708C159.816 12.87 167.831 20.515 173.411 29.782C178.991 39.0491 181.935 49.6021 181.937 60.3506L181.937 60.36Z" fill="url(#paint_linear_1_1131_0)" fill-opacity="1.000000" fill-rule="nonzero"/>
	<path id="Vector" d="M95.8325 97.6204L89.0015 87.2067C89.0015 87.2067 107.925 65.8578 109.819 64.5962C109.819 64.5962 100.274 80.2238 95.8325 97.6204Z" fill="url(#paint_linear_1_1132_0)" fill-opacity="1.000000" fill-rule="nonzero"/>
	<path id="Vector" d="M89.0015 87.2067L76.1216 98.3793L52.4272 87.2067L34.3 88.1749C34.3 88.1749 45.5913 91.8992 48.7686 91.7455L51.9502 91.5919C51.9502 91.5919 71.4084 109.901 75.8831 111.297C80.3577 112.694 95.0552 101.745 95.0552 101.745L95.9089 97.653L89.0015 87.2067Z" fill="url(#paint_linear_1_1133_0)" fill-opacity="1.000000" fill-rule="nonzero"/>
	<path id="Vector" d="M124.541 62.0685C122.751 62.9142 120.826 63.4557 118.85 63.6698C116.565 64.005 113.092 62.7667 113.092 62.7667C115.716 60.751 115.105 55.998 115.105 55.998L115.162 55.9701C117.962 55.7606 120.304 54.2104 121.941 52.7114C121.349 56.7802 124.541 62.0685 124.541 62.0685Z" fill="url(#paint_linear_1_1134_0)" fill-opacity="1.000000" fill-rule="nonzero"/>
	<path id="Vector" d="M124.541 46.9297L124.541 49.7228C123.795 50.8079 122.924 51.806 121.946 52.6975C120.309 54.2012 117.967 55.7513 115.167 55.9562C113.895 56.051 112.617 55.8682 111.427 55.4208C103.794 52.6277 109.161 37.8473 109.161 37.8473C111.584 31.8328 122.556 34.7422 122.556 34.7422C124.025 36.4507 124.307 41.2223 124.25 41.6879C124.005 42.3419 123.685 42.9666 123.296 43.5499C123.296 43.5499 125.38 41.632 126.096 42.9075C126.811 44.1831 124.541 46.9297 124.541 46.9297Z" fill="url(#paint_linear_1_1135_0)" fill-opacity="1.000000" fill-rule="nonzero"/>
	<path id="Vector" d="M124.541 49.7321L124.541 46.939C124.541 46.939 126.807 44.2156 126.091 42.9308C125.375 41.6459 123.291 43.5732 123.291 43.5732C123.68 42.9899 124 42.3651 124.245 41.7111C124.302 41.2456 124.064 36.744 122.552 34.7655C122.552 34.7655 111.58 31.856 109.156 37.8706C109.156 37.8706 106.018 37.0931 103.313 33.4481C98.8906 27.4847 104.171 26.7539 109.404 27.9037C115.754 29.3003 122.117 24.7195 129.392 29.3748C136.667 34.03 130.146 44.6113 124.541 49.7321Z" fill="#262F72" fill-opacity="1.000000" fill-rule="nonzero"/>
	<g filter="url(#filter_1_1137_dd)">
		<path id="Vector" d="M12.7095 23.7419L74.6047 23.7419C76.1011 23.7419 77.3142 24.9258 77.3142 26.3861L77.3142 82.0813C77.3142 83.5416 76.1011 84.7255 74.6047 84.7255L12.7095 84.7255C11.2131 84.7255 10 83.5416 10 82.0813L10 26.3861C10 24.9258 11.2131 23.7419 12.7095 23.7419Z" fill="#FFFFFF" fill-opacity="1.000000" fill-rule="evenodd"/>
	</g>
	<path id="Vector" d="M20.3086 34.7935C20.137 34.9832 19.916 35.1246 19.6694 35.2031C19.375 35.3027 19.0652 35.3516 18.7537 35.3474C18.4302 35.3546 18.1106 35.2775 17.8281 35.1239C17.5603 34.9722 17.3459 34.745 17.2126 34.4722C17.061 34.1578 16.9844 33.8141 16.9885 33.4667L16.9885 33.1967C16.9797 32.8433 17.0498 32.4923 17.1936 32.1678C17.3171 31.8927 17.5234 31.6605 17.7852 31.5022C18.1018 31.3348 18.4597 31.2563 18.8191 31.2753C19.1787 31.2941 19.5256 31.4097 19.822 31.6093C20.1067 31.8632 20.2778 32.2158 20.2991 32.5914L19.4834 32.5914C19.4648 32.4017 19.3767 32.2249 19.2354 32.0934C19.0854 31.9812 18.8992 31.925 18.7107 31.9351C18.5835 31.9281 18.4565 31.9532 18.342 32.0078C18.2278 32.0624 18.1296 32.1448 18.0571 32.2469C17.8896 32.5289 17.8118 32.8529 17.8328 33.1781L17.8328 33.4294C17.8123 33.757 17.8972 34.0826 18.0762 34.3605C18.1587 34.4667 18.2666 34.5515 18.3906 34.6075C18.5144 34.6635 18.6506 34.689 18.7869 34.6816C19.0286 34.7023 19.269 34.6323 19.4595 34.4862L19.4595 33.8019L18.6963 33.8019L18.6963 33.2013L20.2991 33.2013L20.3086 34.7935Z" fill="#64B5F6" fill-opacity="1.000000" fill-rule="nonzero"/>
	<path id="Vector" d="M25.4985 31.2694L69.3572 31.2694C69.8921 31.2694 70.3254 31.6925 70.3254 32.2145L70.3254 35.65C70.3254 36.1719 69.8921 36.595 69.3572 36.595L25.4985 36.595C24.9639 36.595 24.5303 36.1719 24.5303 35.65L24.5303 32.2145C24.5303 31.6925 24.9639 31.2694 25.4985 31.2694Z" fill="#E7EEF2" fill-opacity="1.000000" fill-rule="evenodd"/>
	<path id="Vector" d="M24.5303 39.6023L70.3254 39.6023L70.3254 40.5333L24.5303 40.5333L24.5303 39.6023Z" fill="#BBDEFB" fill-opacity="1.000000" fill-rule="evenodd"/>
	<path id="Vector" d="M24.5303 41.6971L70.3254 41.6971L70.3254 42.6282L24.5303 42.6282L24.5303 41.6971Z" fill="#E7E8E9" fill-opacity="1.000000" fill-rule="evenodd"/>
	<path id="Vector" d="M24.5303 43.792L70.3254 43.792L70.3254 44.723L24.5303 44.723L24.5303 43.792Z" fill="#E7E8E9" fill-opacity="1.000000" fill-rule="evenodd"/>
	<path id="Vector" d="M24.5303 45.8868L70.3254 45.8868L70.3254 46.8179L24.5303 46.8179L24.5303 45.8868Z" fill="#E7E8E9" fill-opacity="1.000000" fill-rule="evenodd"/>
	<path id="Vector" d="M24.5303 49.8065L70.3254 49.8065L70.3254 50.7375L24.5303 50.7375L24.5303 49.8065Z" fill="#BBDEFB" fill-opacity="1.000000" fill-rule="evenodd"/>
	<path id="Vector" d="M24.5303 51.9014L70.3254 51.9014L70.3254 52.8324L24.5303 52.8324L24.5303 51.9014Z" fill="#E7E8E9" fill-opacity="1.000000" fill-rule="evenodd"/>
	<path id="Vector" d="M24.5303 53.9963L70.3254 53.9963L70.3254 54.9274L24.5303 54.9274L24.5303 53.9963Z" fill="#E7E8E9" fill-opacity="1.000000" fill-rule="evenodd"/>
	<path id="Vector" d="M24.5303 56.0911L70.3254 56.0911L70.3254 57.0221L24.5303 57.0221L24.5303 56.0911Z" fill="#E7E8E9" fill-opacity="1.000000" fill-rule="evenodd"/>
	<path id="Vector" d="M24.5303 59.8944L70.3254 59.8944L70.3254 60.8254L24.5303 60.8254L24.5303 59.8944Z" fill="#BBDEFB" fill-opacity="1.000000" fill-rule="evenodd"/>
	<path id="Vector" d="M24.5303 61.9893L70.3254 61.9893L70.3254 62.9203L24.5303 62.9203L24.5303 61.9893Z" fill="#E7E8E9" fill-opacity="1.000000" fill-rule="evenodd"/>
	<path id="Vector" d="M24.5303 64.0841L70.3254 64.0841L70.3254 65.0151L24.5303 65.0151L24.5303 64.0841Z" fill="#E7E8E9" fill-opacity="1.000000" fill-rule="evenodd"/>
	<path id="Vector" d="M24.5303 66.179L70.3254 66.179L70.3254 67.11L24.5303 67.11L24.5303 66.179Z" fill="#E7E8E9" fill-opacity="1.000000" fill-rule="evenodd"/>
	<path id="Vector" d="M24.5303 69.9823L70.3254 69.9823L70.3254 70.9133L24.5303 70.9133L24.5303 69.9823Z" fill="#BBDEFB" fill-opacity="1.000000" fill-rule="evenodd"/>
	<path id="Vector" d="M24.5303 72.0771L70.3254 72.0771L70.3254 73.0082L24.5303 73.0082L24.5303 72.0771Z" fill="#E7E8E9" fill-opacity="1.000000" fill-rule="evenodd"/>
	<path id="Vector" d="M24.5303 74.172L70.3254 74.172L70.3254 75.103L24.5303 75.103L24.5303 74.172Z" fill="#E7E8E9" fill-opacity="1.000000" fill-rule="evenodd"/>
	<path id="Vector" d="M24.5303 76.2668L70.3254 76.2668L70.3254 77.1979L24.5303 77.1979L24.5303 76.2668Z" fill="#E7E8E9" fill-opacity="1.000000" fill-rule="evenodd"/>
	<path id="Vector" d="M141.041 84.5579C144.304 94.036 146.723 105.008 148.373 114.044C147.781 114.347 147.18 114.635 146.575 114.915C146.303 115.045 146.036 115.166 145.759 115.287C144.032 116.06 142.261 116.754 140.445 117.368C139.014 117.857 137.544 118.299 136.061 118.681C122.049 122.322 107.172 121.059 94.0151 115.11C93.4761 114.864 92.937 114.612 92.4075 114.351C93.3616 109.57 94.4968 103.952 95.8279 97.6251C96.3113 95.3317 96.8184 92.9451 97.3496 90.4655C100.083 77.7612 104.004 70.8436 107.243 67.0962L107.277 67.0588C107.892 66.3464 108.558 65.6775 109.271 65.0571C109.291 65.0347 109.313 65.0143 109.337 64.9966C109.5 64.8569 109.662 64.7266 109.814 64.601C111.766 63.0508 113.092 62.7667 113.092 62.7667L113.211 62.8087L113.278 62.8087C114.314 63.2074 115.4 63.4689 116.507 63.5861L116.693 63.5861L116.722 63.5861C117.429 63.6521 118.141 63.6631 118.849 63.6187L118.892 63.6187C120.861 63.4962 122.779 62.9561 124.512 62.0359C126.544 62.6918 128.458 63.6547 130.184 64.8895C135.116 68.4229 145.053 81.3784 145.053 81.3784L141.041 84.5579Z" fill="url(#paint_linear_1_1156_0)" fill-opacity="1.000000" fill-rule="nonzero"/>
	<path id="Vector" d="M159.211 102.248C159.183 103.542 157.976 106.167 156.211 109.352C153.72 111.105 151.099 112.673 148.368 114.044C147.777 114.347 147.176 114.635 146.57 114.915C146.298 115.045 146.031 115.166 145.754 115.287C144.027 116.06 142.256 116.753 140.44 117.368L145.048 103.035L133.122 90.8146L141.036 84.5579L145.048 81.3877C145.048 81.3877 159.335 97.2434 159.211 102.248Z" fill="url(#paint_linear_1_1157_0)" fill-opacity="1.000000" fill-rule="nonzero"/>
</svg>
